<svg viewBox="0 0 37 39" fill="none" xmlns="http://www.w3.org/2000/svg">
<path d="M25.4157 0.64674C22.6422 0.669239 18.4803 0.77853 14.386 1.16425C11.5675 1.43105 8.65576 1.85213 6.44466 3.10573C5.82118 3.45931 5.13986 3.5461 4.53566 3.62003C4.27856 3.65218 4.03753 3.6811 3.83184 3.72932C2.26351 4.09897 1.1676 5.45544 1.16118 7.02726L1.13868 17.5543C1.13547 19.0104 2.17352 20.2287 3.61009 20.4537C3.6358 20.4569 3.6583 20.4633 3.68401 20.4698C3.86077 20.5276 8.0837 21.9034 11.2654 24.3913C12.763 25.5613 14.0453 27.3646 14.6977 29.2128C15.3469 31.0547 15.3437 33.0637 15.3405 34.6773C15.3405 35.7187 15.3372 37.0141 15.6201 37.2038C16.3078 37.657 17.0663 37.8884 17.8729 37.8884C20.354 37.8884 22.8865 35.6223 22.9861 33.3144C23.0568 31.7136 22.5201 29.8236 22.0027 27.9978C21.392 25.8345 20.8618 23.967 21.3406 22.6973C21.4113 22.5077 21.5913 22.3855 21.7906 22.3855C21.797 22.3855 24.1334 22.4659 24.1334 22.4659H24.1559C26.7784 22.4659 28.9123 20.3315 28.9155 17.7118L28.9316 4.14397C28.9316 3.20859 28.5717 2.33107 27.9096 1.67212C27.2508 1.01318 26.3734 0.64674 25.4382 0.64674H25.4157Z" fill="url(#paint0_radial_37_3368)"/>
<path d="M17.8726 37.4061C20.0772 37.4061 22.4137 35.3296 22.5037 33.2949C22.5711 31.7713 22.0473 29.9198 21.5395 28.1294C20.9032 25.8858 20.3568 23.9475 20.8903 22.53C21.0317 22.1539 21.3917 21.9064 21.7934 21.9064H21.8288L24.1427 21.9867H24.162C26.5177 21.9867 28.4363 20.071 28.4395 17.7116L28.4556 4.14376C28.4556 3.34016 28.1439 2.58157 27.575 2.01263C27.0062 1.44369 26.2509 1.12868 25.4443 1.12868H25.4186C22.6547 1.15118 18.5057 1.26047 14.4306 1.64298C11.6667 1.90334 8.81288 2.31478 6.68213 3.52338C5.97509 3.92518 5.21021 4.0184 4.59637 4.09554C4.35212 4.12447 4.12395 4.1534 3.94397 4.1984C2.59418 4.51662 1.64932 5.68023 1.64611 7.02705L1.6204 17.5541C1.61718 18.7691 2.48491 19.7881 3.68365 19.9745C3.73186 19.981 3.78328 19.9938 3.82828 20.0099C4.00825 20.0677 8.30831 21.4724 11.5575 24.0118C13.1226 25.2365 14.466 27.1201 15.1473 29.0519C15.8254 30.9709 15.8222 33.0249 15.819 34.6771C15.819 35.4614 15.8157 36.5221 15.9507 36.8435C16.5421 37.2196 17.188 37.4061 17.8726 37.4061ZM17.8726 38.3704C17.0209 38.3704 16.1596 38.1389 15.353 37.6053C14.3117 36.9175 15.4397 32.7774 14.241 29.3766C13.5211 27.3354 12.1488 25.6961 10.9661 24.7736C7.8166 22.3114 3.53582 20.9292 3.53582 20.9292C1.87429 20.6688 0.653043 19.2352 0.656256 17.5509L0.681967 7.02383C0.688395 5.21093 1.95785 3.67768 3.72222 3.25981C4.43568 3.09266 5.40946 3.13766 6.20649 2.68443C8.33724 1.47583 11.069 0.993675 14.3406 0.685097C18.39 0.302586 22.5037 0.190086 25.4121 0.164371H25.4443C27.6393 0.164371 29.423 1.94513 29.4198 4.14376L29.4037 17.7116C29.4005 20.6078 27.0512 22.9478 24.162 22.9478H24.1234L21.7966 22.8675C20.9932 25.0018 23.6253 29.8041 23.471 33.3367C23.3585 35.8471 20.6814 38.3704 17.8726 38.3704Z" fill="#EDA600"/>
<path d="M19.1829 19.668C19.7871 18.0609 19.7936 15.5536 19.1829 14.0043C18.2991 11.7671 16.1363 9.80957 13.6391 9.46563C13.0285 9.38206 13.3917 8.81955 13.9991 8.90312C16.7019 9.27599 20.3592 10.3721 21.3105 12.7989C23.9201 19.4687 20.867 22.9628 19.5043 21.9213C18.8487 21.4134 18.8423 20.5777 19.1829 19.668Z" fill="#EDA600"/>
<path d="M25.6609 17.284C22.9742 17.284 19.7443 17.7822 19.6061 20.1636C19.5676 20.8449 19.7732 21.417 20.236 21.9087C21.4541 23.2006 24.4461 23.9109 28.6626 23.9109C30.1924 23.9109 31.3076 23.8113 31.3204 23.8113C31.3333 23.8113 31.3493 23.808 31.3622 23.808H31.3911C31.4361 23.8113 31.4779 23.8113 31.5229 23.8113C32.8888 23.8113 34.0297 22.5804 34.1229 21.0088C34.2193 19.3826 33.1491 17.9943 31.7382 17.9139C31.7157 17.9139 31.69 17.9107 31.6675 17.9043C31.6386 17.9011 28.6626 17.284 25.6609 17.284Z" fill="url(#paint1_radial_37_3368)"/>
<path d="M28.6665 23.4287C30.1705 23.4287 31.2696 23.3323 31.2793 23.3323C31.3082 23.3291 31.3371 23.3291 31.3661 23.3291C31.3853 23.3291 31.4046 23.3291 31.4207 23.3323C31.456 23.3355 31.4914 23.3355 31.5235 23.3355C32.6323 23.3355 33.5643 22.3039 33.6414 20.9894C33.68 20.3081 33.4872 19.6621 33.0983 19.1672C32.7351 18.7044 32.2402 18.4344 31.7099 18.4023C31.6617 18.3991 31.6135 18.3927 31.5685 18.383C31.5396 18.3766 28.6054 17.7692 25.6616 17.7692C23.9518 17.7692 22.5956 17.9684 21.6347 18.3605C20.3138 18.9004 20.1178 19.6653 20.0888 20.1924C20.0567 20.7419 20.2174 21.1822 20.5902 21.5807C21.699 22.7538 24.6428 23.4287 28.6665 23.4287ZM28.6665 24.3928C24.9963 24.3928 18.9094 23.8368 19.1247 20.1345C19.2822 17.4607 22.5088 16.8018 25.6616 16.8018C28.75 16.8018 31.7678 17.435 31.7678 17.435C33.4454 17.5346 34.7181 19.1479 34.6056 21.0408C34.4995 22.8727 33.1369 24.2964 31.5268 24.2964C31.4721 24.2964 31.4207 24.2964 31.3661 24.2932C31.3661 24.2932 30.238 24.3928 28.6665 24.3928Z" fill="#EDA600"/>
<path d="M27.6744 11.1657C24.1682 11.1657 19.9902 11.7539 19.9902 14.5627C19.9902 17.3716 24.1682 17.9597 27.6744 17.9597C30.6472 17.9597 33.3564 17.5259 33.3821 17.5226C33.4078 17.5194 33.4336 17.5162 33.4593 17.5162C34.8766 17.5162 35.8632 16.0186 35.8632 14.6752C35.8632 13.2579 34.8123 11.6125 33.4593 11.6125C33.4336 11.6125 33.4078 11.6093 33.3821 11.606C33.3532 11.5996 30.644 11.1657 27.6744 11.1657Z" fill="url(#paint2_radial_37_3368)"/>
<path d="M27.6741 17.4734C30.6051 17.4734 33.2789 17.0459 33.3047 17.0427C33.3561 17.0331 33.4075 17.0299 33.4589 17.0299C34.558 17.0299 35.3808 15.7829 35.3808 14.6709C35.3808 13.5107 34.4938 12.0903 33.4589 12.0903C33.4075 12.0903 33.3561 12.087 33.3047 12.0774C33.2789 12.0742 30.6018 11.6467 27.6741 11.6467C25.4791 11.6467 23.734 11.8781 22.4838 12.3377C20.6808 12.9998 20.472 13.9253 20.472 14.5617C20.472 15.2012 20.6808 16.1236 22.4838 16.7856C23.7307 17.242 25.4791 17.4734 27.6741 17.4734ZM27.6741 18.4375C23.84 18.4375 19.5078 17.7337 19.5078 14.5584C19.5078 11.3832 23.8368 10.6794 27.6741 10.6794C30.724 10.6794 33.4589 11.1229 33.4589 11.1229C35.1172 11.1229 36.3449 13.0223 36.3449 14.6677C36.3449 16.3132 35.1172 17.9908 33.4589 17.9908C33.4589 17.994 30.7208 18.4375 27.6741 18.4375Z" fill="#EDA600"/>
<path d="M30.3463 0.478852C28.9932 0.478852 22.1382 0.584909 20.0621 2.66424C19.6989 3.02739 19.5254 3.41948 19.5254 3.86298C19.5318 5.55022 22.421 6.51758 27.4506 6.51758C29.2439 6.51758 30.6323 6.38903 30.6483 6.38903C30.6612 6.38903 30.6773 6.38581 30.6901 6.38581C31.4422 6.3826 32.1524 6.07729 32.6827 5.5213C33.2194 4.9621 33.5118 4.2165 33.5118 3.42591C33.5054 1.80294 32.236 0.485281 30.6805 0.485281C30.658 0.478854 30.5455 0.478852 30.3463 0.478852Z" fill="url(#paint3_radial_37_3368)"/>
<path d="M27.4542 6.03537C29.2186 6.03537 30.5909 5.91004 30.6037 5.90682C30.6326 5.90361 30.6616 5.90361 30.6905 5.90361C31.3107 5.90039 31.8957 5.6465 32.3359 5.18693C32.7859 4.71772 33.0333 4.09103 33.0301 3.42577C33.0269 2.06955 31.9728 0.964 30.6712 0.964H30.668H30.6487C30.6423 0.964 30.533 0.960788 30.3434 0.960788C24.5103 0.960788 21.3415 2.06312 20.3999 3.00476C20.0432 3.3615 20.0046 3.66359 20.0046 3.85963C20.0142 5.203 22.8649 6.03537 27.4542 6.03537ZM27.4542 6.99951C24.009 6.99951 19.0533 6.53673 19.0469 3.86606C19.034 0.183047 28.4633 -0.00013876 30.3466 -0.00013876C30.5555 -0.00013876 30.6712 0.0030756 30.6712 0.0030756H30.6808C32.5063 0.0030756 33.9878 1.53284 33.9943 3.42577C34.0007 5.32191 32.5223 6.86453 30.6937 6.87096C30.6937 6.86775 29.2893 6.99951 27.4542 6.99951Z" fill="#EDA600"/>
<path d="M29.1451 5.58308C26.2559 5.58308 19.5391 5.91089 19.5391 8.94792C19.5391 11.4997 24.3823 11.8789 27.2715 11.8789C29.8264 11.8789 32.0279 11.5961 32.0504 11.5929C32.0697 11.5897 32.0922 11.5897 32.1114 11.5897C33.4516 11.5897 35.0135 10.9276 35.0135 9.06041C35.0135 7.29282 33.6316 5.68592 32.1114 5.68592H32.0729C32.06 5.68271 30.8227 5.58308 29.1451 5.58308Z" fill="url(#paint4_radial_37_3368)"/>
<path d="M27.2711 12.3567V11.3926C29.7875 11.3926 31.9665 11.1129 31.9858 11.1097C32.0275 11.1033 32.0693 11.1033 32.1111 11.1033C33.2809 11.1033 34.5311 10.5666 34.5311 9.05612C34.5311 7.56813 33.3548 6.1637 32.1111 6.1637C32.0854 6.1637 32.0597 6.1637 32.0307 6.16049C32.0179 6.16049 30.7999 6.06086 29.1415 6.06086C27.39 6.06086 24.8865 6.17334 22.9036 6.70041C20.9913 7.2114 20.0208 7.96664 20.0208 8.94042C20.0208 9.2393 20.0208 10.1488 22.0583 10.7884C23.3278 11.1869 25.0793 11.3893 27.2679 11.3893L27.2711 12.3567ZM27.2711 12.3567C23.556 12.3567 19.0566 11.7718 19.0566 8.94364C19.0566 5.61093 25.2914 5.09672 29.1448 5.09672C30.8674 5.09672 32.1111 5.19956 32.1111 5.19956C33.9237 5.19956 35.4952 7.0732 35.4952 9.05612C35.4952 11.039 33.9237 12.0674 32.1111 12.0674C32.1111 12.0674 29.8839 12.3567 27.2711 12.3567Z" fill="#EDA600"/>
<path d="M6.86381 2.82241L5.3244 8.89648L4.68164 3.43303L6.86381 2.82241Z" fill="#EDA600"/>
<defs>
<radialGradient id="paint0_radial_37_3368" cx="0" cy="0" r="1" gradientUnits="userSpaceOnUse" gradientTransform="translate(14.5689 29.6625) rotate(-90.1249) scale(27.9776 22.0229)">
<stop offset="0.6" stop-color="#FFCA28"/>
<stop offset="1" stop-color="#FFB300"/>
</radialGradient>
<radialGradient id="paint1_radial_37_3368" cx="0" cy="0" r="1" gradientUnits="userSpaceOnUse" gradientTransform="translate(31.0191 20.8779) rotate(-176.727) scale(9.08594 4.44589)">
<stop offset="0.5993" stop-color="#FFCA28"/>
<stop offset="1" stop-color="#FFB300"/>
</radialGradient>
<radialGradient id="paint2_radial_37_3368" cx="0" cy="0" r="1" gradientUnits="userSpaceOnUse" gradientTransform="translate(32.4525 14.6474) rotate(179.936) scale(10.2257 4.10068)">
<stop offset="0.5993" stop-color="#FFCA28"/>
<stop offset="1" stop-color="#FFB300"/>
</radialGradient>
<radialGradient id="paint3_radial_37_3368" cx="0" cy="0" r="1" gradientUnits="userSpaceOnUse" gradientTransform="translate(30.4598 3.56215) rotate(179.726) scale(8.58765 4.47095)">
<stop offset="0.5993" stop-color="#FFCA28"/>
<stop offset="1" stop-color="#FFB300"/>
</radialGradient>
<radialGradient id="paint4_radial_37_3368" cx="0" cy="0" r="1" gradientUnits="userSpaceOnUse" gradientTransform="translate(31.6828 8.80756) rotate(179.934) scale(9.78405 4.06962)">
<stop offset="0.5993" stop-color="#FFCA28"/>
<stop offset="1" stop-color="#FFB300"/>
</radialGradient>
</defs>
</svg>
