<svg width="123" height="122" viewBox="0 0 123 122" fill="none" xmlns="http://www.w3.org/2000/svg">
<path d="M61.1094 0L58.4489 8.1882L62.543 9.51845L61.1094 0Z" fill="#FFCC00"/>
<path d="M61.1094 0L63.7699 8.1882L59.6758 9.51845L61.1094 0Z" fill="#FFCC00"/>
<path d="M69.3008 5.94897H60.6912V10.2538L69.3008 5.94897Z" fill="#FFCC00"/>
<path d="M69.3008 5.94897L62.3355 11.0096L59.8052 7.52691L69.3008 5.94897Z" fill="#FFCC00"/>
<path d="M66.1738 15.5751L63.5133 7.38687L59.4192 8.71713L66.1738 15.5751Z" fill="#FFCC00"/>
<path d="M66.1738 15.5751L59.2085 10.5145L61.7388 7.03184L66.1738 15.5751Z" fill="#FFCC00"/>
<path d="M52.9219 5.94885H61.5315V10.2536L52.9219 5.94885Z" fill="#FFCC00"/>
<path d="M52.9219 5.94885L59.8872 11.0094L62.4175 7.52679L52.9219 5.94885Z" fill="#FFCC00"/>
<path d="M56.0508 15.5748L58.7113 7.38663L62.8054 8.71688L56.0508 15.5748Z" fill="#FFCC00"/>
<path d="M56.0508 15.5748L63.0161 10.5142L60.4858 7.03159L56.0508 15.5748Z" fill="#FFCC00"/>
<path d="M61.1094 103.315L58.4489 111.503L62.543 112.833L61.1094 103.315Z" fill="#FFCC00"/>
<path d="M61.1094 103.315L63.7699 111.503L59.6758 112.833L61.1094 103.315Z" fill="#FFCC00"/>
<path d="M69.3008 109.264H60.6912V113.569L69.3008 109.264Z" fill="#FFCC00"/>
<path d="M69.3008 109.264L62.3355 114.324L59.8052 110.842L69.3008 109.264Z" fill="#FFCC00"/>
<path d="M66.1738 118.89L63.5133 110.702L59.4192 112.032L66.1738 118.89Z" fill="#FFCC00"/>
<path d="M66.1738 118.89L59.2085 113.829L61.7388 110.347L66.1738 118.89Z" fill="#FFCC00"/>
<path d="M52.9219 109.264H61.5315V113.569L52.9219 109.264Z" fill="#FFCC00"/>
<path d="M52.9219 109.264L59.8872 114.324L62.4175 110.842L52.9219 109.264Z" fill="#FFCC00"/>
<path d="M56.0508 118.89L58.7113 110.701L62.8054 112.032L56.0508 118.89Z" fill="#FFCC00"/>
<path d="M56.0508 118.89L63.0161 113.829L60.4858 110.346L56.0508 118.89Z" fill="#FFCC00"/>
<path d="M9.45312 51.6576L6.79262 59.8458L10.8867 61.176L9.45312 51.6576Z" fill="#FFCC00"/>
<path d="M9.45312 51.6576L12.1136 59.8458L8.01953 61.176L9.45312 51.6576Z" fill="#FFCC00"/>
<path d="M17.6426 57.6063H9.033V61.9111L17.6426 57.6063Z" fill="#FFCC00"/>
<path d="M17.6426 57.6063L10.6773 62.6669L8.14699 59.1843L17.6426 57.6063Z" fill="#FFCC00"/>
<path d="M14.5137 67.2322L11.8532 59.044L7.75907 60.3742L14.5137 67.2322Z" fill="#FFCC00"/>
<path d="M14.5137 67.2322L7.54837 62.1716L10.0787 58.6889L14.5137 67.2322Z" fill="#FFCC00"/>
<path d="M1.26562 57.6063H9.87521V61.9111L1.26562 57.6063Z" fill="#FFCC00"/>
<path d="M1.26562 57.6063L8.23092 62.6669L10.7612 59.1843L1.26562 57.6063Z" fill="#FFCC00"/>
<path d="M4.39453 67.2323L7.05504 59.0441L11.1491 60.3744L4.39453 67.2323Z" fill="#FFCC00"/>
<path d="M4.39453 67.2323L11.3598 62.1717L8.82954 58.6891L4.39453 67.2323Z" fill="#FFCC00"/>
<path d="M30.2227 22.4951L37.188 17.4345L34.6577 13.9519L30.2227 22.4951Z" fill="#FFCC00"/>
<path d="M30.2227 22.4951L32.8832 14.3069L36.9773 15.6372L30.2227 22.4951Z" fill="#FFCC00"/>
<path d="M27.0938 12.8691L34.059 17.9297L36.5893 14.4471L27.0938 12.8691Z" fill="#FFCC00"/>
<path d="M27.0938 12.8691H35.7033V17.1739L27.0938 12.8691Z" fill="#FFCC00"/>
<path d="M35.2812 6.9198L32.6207 15.108L36.7148 16.4383L35.2812 6.9198Z" fill="#FFCC00"/>
<path d="M35.2812 6.9198L37.9418 15.108L33.8477 16.4383L35.2812 6.9198Z" fill="#FFCC00"/>
<path d="M40.3438 22.4952L33.3785 17.4347L35.9087 13.952L40.3438 22.4952Z" fill="#FFCC00"/>
<path d="M40.3438 22.4952L37.6832 14.307L33.5891 15.6373L40.3438 22.4952Z" fill="#FFCC00"/>
<path d="M43.4707 12.8698L36.5054 17.9303L33.9751 14.4477L43.4707 12.8698Z" fill="#FFCC00"/>
<path d="M43.4707 12.8698H34.8611V17.1745L43.4707 12.8698Z" fill="#FFCC00"/>
<path d="M21.4355 41.4032L18.775 33.215L14.6809 34.5453L21.4355 41.4032Z" fill="#FFCC00"/>
<path d="M21.4355 41.4032L14.4702 36.3426L17.0005 32.86L21.4355 41.4032Z" fill="#FFCC00"/>
<path d="M11.3125 41.4033L18.2778 36.3427L15.7475 32.8601L11.3125 41.4033Z" fill="#FFCC00"/>
<path d="M11.3125 41.4033L13.973 33.2151L18.0671 34.5454L11.3125 41.4033Z" fill="#FFCC00"/>
<path d="M8.18555 31.7776L15.1508 36.8382L17.6811 33.3555L8.18555 31.7776Z" fill="#FFCC00"/>
<path d="M8.18555 31.7776H16.7951V36.0824L8.18555 31.7776Z" fill="#FFCC00"/>
<path d="M24.5605 31.7777L17.5952 36.8383L15.065 33.3556L24.5605 31.7777Z" fill="#FFCC00"/>
<path d="M24.5605 31.7777H15.951V36.0825L24.5605 31.7777Z" fill="#FFCC00"/>
<path d="M16.373 25.8289L19.0336 34.0171L14.9395 35.3473L16.373 25.8289Z" fill="#FFCC00"/>
<path d="M16.373 25.8289L13.7125 34.0171L17.8066 35.3473L16.373 25.8289Z" fill="#FFCC00"/>
<path d="M24.5625 83.4346H15.9529V87.7394L24.5625 83.4346Z" fill="#FFCC00"/>
<path d="M24.5625 83.4346L17.5972 88.4952L15.0669 85.0125L24.5625 83.4346Z" fill="#FFCC00"/>
<path d="M21.4355 93.0609L18.775 84.8727L14.6809 86.203L21.4355 93.0609Z" fill="#FFCC00"/>
<path d="M21.4355 93.0609L14.4702 88.0003L17.0005 84.5177L21.4355 93.0609Z" fill="#FFCC00"/>
<path d="M11.3145 93.0605L18.2798 88L15.7495 84.5173L11.3145 93.0605Z" fill="#FFCC00"/>
<path d="M11.3145 93.0605L13.975 84.8723L18.0691 86.2026L11.3145 93.0605Z" fill="#FFCC00"/>
<path d="M16.375 77.4858L19.0355 85.674L14.9414 87.0043L16.375 77.4858Z" fill="#FFCC00"/>
<path d="M16.375 77.4858L13.7145 85.674L17.8086 87.0043L16.375 77.4858Z" fill="#FFCC00"/>
<path d="M8.18555 83.4346H16.7951V87.7394L8.18555 83.4346Z" fill="#FFCC00"/>
<path d="M8.18555 83.4346L15.1508 88.4952L17.6811 85.0125L8.18555 83.4346Z" fill="#FFCC00"/>
<path d="M43.4727 102.343H34.8631V106.648L43.4727 102.343Z" fill="#FFCC00"/>
<path d="M43.4727 102.343L36.5074 107.404L33.9771 103.921L43.4727 102.343Z" fill="#FFCC00"/>
<path d="M40.3438 111.969L37.6832 103.781L33.5891 105.111L40.3438 111.969Z" fill="#FFCC00"/>
<path d="M40.3438 111.969L33.3785 106.908L35.9087 103.426L40.3438 111.969Z" fill="#FFCC00"/>
<path d="M30.2227 111.969L37.188 106.908L34.6577 103.426L30.2227 111.969Z" fill="#FFCC00"/>
<path d="M30.2227 111.969L32.8832 103.781L36.9773 105.111L30.2227 111.969Z" fill="#FFCC00"/>
<path d="M35.2832 96.3939L37.9437 104.582L33.8496 105.912L35.2832 96.3939Z" fill="#FFCC00"/>
<path d="M35.2832 96.3939L32.6227 104.582L36.7168 105.912L35.2832 96.3939Z" fill="#FFCC00"/>
<path d="M27.0938 102.343H35.7033V106.648L27.0938 102.343Z" fill="#FFCC00"/>
<path d="M27.0938 102.343L34.059 107.403L36.5893 103.921L27.0938 102.343Z" fill="#FFCC00"/>
<path d="M112.768 51.6575L115.428 59.8457L111.334 61.1759L112.768 51.6575Z" fill="#FFCC00"/>
<path d="M112.768 51.6575L110.107 59.8457L114.201 61.1759L112.768 51.6575Z" fill="#FFCC00"/>
<path d="M104.578 57.6064H113.188V61.9112L104.578 57.6064Z" fill="#FFCC00"/>
<path d="M104.578 57.6064L111.543 62.667L114.074 59.1844L104.578 57.6064Z" fill="#FFCC00"/>
<path d="M107.707 67.2324L110.368 59.0442L114.462 60.3745L107.707 67.2324Z" fill="#FFCC00"/>
<path d="M107.707 67.2324L114.672 62.1718L112.142 58.6892L107.707 67.2324Z" fill="#FFCC00"/>
<path d="M120.957 57.6063H112.347V61.9111L120.957 57.6063Z" fill="#FFCC00"/>
<path d="M120.957 57.6063L113.992 62.6669L111.461 59.1843L120.957 57.6063Z" fill="#FFCC00"/>
<path d="M117.828 67.2322L115.168 59.044L111.074 60.3742L117.828 67.2322Z" fill="#FFCC00"/>
<path d="M117.828 67.2322L110.863 62.1716L113.393 58.6889L117.828 67.2322Z" fill="#FFCC00"/>
<path d="M91.998 22.4955L85.0327 17.4349L87.563 13.9522L91.998 22.4955Z" fill="#FFCC00"/>
<path d="M91.998 22.4955L89.3375 14.3073L85.2434 15.6375L91.998 22.4955Z" fill="#FFCC00"/>
<path d="M95.125 12.8698L88.1597 17.9303L85.6294 14.4477L95.125 12.8698Z" fill="#FFCC00"/>
<path d="M95.125 12.8698H86.5154V17.1745L95.125 12.8698Z" fill="#FFCC00"/>
<path d="M86.9375 6.92065L89.598 15.1089L85.5039 16.4391L86.9375 6.92065Z" fill="#FFCC00"/>
<path d="M86.9375 6.92065L84.277 15.1089L88.3711 16.4391L86.9375 6.92065Z" fill="#FFCC00"/>
<path d="M81.877 22.4954L88.8423 17.4348L86.312 13.9521L81.877 22.4954Z" fill="#FFCC00"/>
<path d="M81.877 22.4954L84.5375 14.3072L88.6316 15.6374L81.877 22.4954Z" fill="#FFCC00"/>
<path d="M78.75 12.8696L85.7153 17.9302L88.2456 14.4476L78.75 12.8696Z" fill="#FFCC00"/>
<path d="M78.75 12.8696H87.3596V17.1744L78.75 12.8696Z" fill="#FFCC00"/>
<path d="M100.787 41.4037L103.448 33.2155L107.542 34.5457L100.787 41.4037Z" fill="#FFCC00"/>
<path d="M100.787 41.4037L107.752 36.3431L105.222 32.8605L100.787 41.4037Z" fill="#FFCC00"/>
<path d="M110.908 41.4036L103.943 36.343L106.473 32.8603L110.908 41.4036Z" fill="#FFCC00"/>
<path d="M110.908 41.4036L108.248 33.2154L104.154 34.5456L110.908 41.4036Z" fill="#FFCC00"/>
<path d="M114.035 31.7778L107.07 36.8384L104.54 33.3558L114.035 31.7778Z" fill="#FFCC00"/>
<path d="M114.035 31.7778H105.426V36.0826L114.035 31.7778Z" fill="#FFCC00"/>
<path d="M97.6602 31.7767L104.625 36.8373L107.156 33.3547L97.6602 31.7767Z" fill="#FFCC00"/>
<path d="M97.6602 31.7767H106.27V36.0815L97.6602 31.7767Z" fill="#FFCC00"/>
<path d="M105.848 25.8287L103.187 34.0169L107.281 35.3472L105.848 25.8287Z" fill="#FFCC00"/>
<path d="M105.848 25.8287L108.508 34.0169L104.414 35.3472L105.848 25.8287Z" fill="#FFCC00"/>
<path d="M97.6582 83.4352H106.268V87.74L97.6582 83.4352Z" fill="#FFCC00"/>
<path d="M97.6582 83.4352L104.624 88.4958L107.154 85.0131L97.6582 83.4352Z" fill="#FFCC00"/>
<path d="M100.785 93.0612L103.446 84.873L107.54 86.2032L100.785 93.0612Z" fill="#FFCC00"/>
<path d="M100.785 93.0612L107.75 88.0006L105.22 84.5179L100.785 93.0612Z" fill="#FFCC00"/>
<path d="M110.906 93.0609L103.941 88.0003L106.471 84.5177L110.906 93.0609Z" fill="#FFCC00"/>
<path d="M110.906 93.0609L108.246 84.8727L104.152 86.203L110.906 93.0609Z" fill="#FFCC00"/>
<path d="M105.848 77.4863L103.187 85.6745L107.281 87.0048L105.848 77.4863Z" fill="#FFCC00"/>
<path d="M105.848 77.4863L108.508 85.6745L104.414 87.0048L105.848 77.4863Z" fill="#FFCC00"/>
<path d="M114.035 83.4351H105.426V87.7398L114.035 83.4351Z" fill="#FFCC00"/>
<path d="M114.035 83.4351L107.07 88.4956L104.54 85.013L114.035 83.4351Z" fill="#FFCC00"/>
<path d="M78.75 102.343H87.3596V106.648L78.75 102.343Z" fill="#FFCC00"/>
<path d="M78.75 102.343L85.7153 107.404L88.2456 103.921L78.75 102.343Z" fill="#FFCC00"/>
<path d="M81.8789 111.969L84.5394 103.781L88.6335 105.111L81.8789 111.969Z" fill="#FFCC00"/>
<path d="M81.8789 111.969L88.8442 106.909L86.3139 103.426L81.8789 111.969Z" fill="#FFCC00"/>
<path d="M92 111.969L85.0347 106.909L87.565 103.426L92 111.969Z" fill="#FFCC00"/>
<path d="M92 111.969L89.3395 103.781L85.2454 105.111L92 111.969Z" fill="#FFCC00"/>
<path d="M86.9375 96.3943L84.277 104.582L88.3711 105.913L86.9375 96.3943Z" fill="#FFCC00"/>
<path d="M86.9375 96.3943L89.598 104.582L85.5039 105.913L86.9375 96.3943Z" fill="#FFCC00"/>
<path d="M95.127 102.343H86.5174V106.648L95.127 102.343Z" fill="#FFCC00"/>
<path d="M95.127 102.343L88.1617 107.404L85.6314 103.921L95.127 102.343Z" fill="#FFCC00"/>
</svg>
