<svg viewBox="0 0 174 44" fill="none" xmlns="http://www.w3.org/2000/svg">
<path d="M18 40C27.9411 40 36 31.9411 36 22C36 12.0589 27.9411 4 18 4C8.05887 4 0 12.0589 0 22C0 31.9411 8.05887 40 18 40Z" fill="#0052B4"/>
<path d="M17.9999 11.0433L18.5827 12.8369H20.4685L18.9428 13.9454L19.5256 15.739L17.9999 14.6305L16.4741 15.739L17.057 13.9454L15.5312 12.8369H17.4171L17.9999 11.0433Z" fill="#FFDA44"/>
<path d="M10.2526 14.2525L11.9331 15.1087L13.2665 13.7753L12.9714 15.6378L14.6518 16.494L12.7892 16.7891L12.4942 18.6518L11.638 16.9714L9.77539 17.2665L11.1089 15.933L10.2526 14.2525Z" fill="#FFDA44"/>
<path d="M7.04297 22L8.83657 21.4172V19.5314L9.94498 21.0572L11.7386 20.4743L10.63 22L11.7386 23.5258L9.94498 22.943L8.83657 24.4687V22.5829L7.04297 22Z" fill="#FFDA44"/>
<path d="M10.2526 29.7474L11.1088 28.067L9.77539 26.7335L11.638 27.0287L12.4941 25.3483L12.7892 27.2109L14.6518 27.5059L12.9716 28.3621L13.2665 30.2247L11.9331 28.8912L10.2526 29.7474Z" fill="#FFDA44"/>
<path d="M17.9999 32.9565L17.417 31.1629H15.5312L17.057 30.0544L16.4741 28.261L17.9999 29.3694L19.5256 28.261L18.9428 30.0544L20.4685 31.1629H18.5827L17.9999 32.9565Z" fill="#FFDA44"/>
<path d="M25.7468 29.7474L24.0664 28.8913L22.7328 30.2248L23.0279 28.3621L21.3477 27.5059L23.2102 27.2109L23.5053 25.3483L24.3614 27.0287L26.224 26.7335L24.8905 28.0671L25.7468 29.7474Z" fill="#FFDA44"/>
<path d="M28.9573 22L27.1637 22.5829V24.4687L26.0552 22.9429L24.2617 23.5258L25.3702 22L24.2617 20.4743L26.0552 21.0572L27.1637 19.5314V21.4173L28.9573 22Z" fill="#FFDA44"/>
<path d="M25.7468 14.2526L24.8906 15.9331L26.224 17.2665L24.3613 16.9714L23.5053 18.6518L23.2102 16.7891L21.3477 16.494L23.0279 15.6379L22.7328 13.7754L24.0664 15.1088L25.7468 14.2526Z" fill="#FFDA44"/>
<path d="M52.1231 26.5929L58.4657 11.9592H63.2259L53.9147 31H50.7892L52.1231 26.5929ZM50.6454 11.9592L52.4501 26.9721L52.437 31H49.4684L46.1467 11.9592H50.6454ZM61.4212 24.1474L61.4474 23.8728C61.5607 22.8615 61.8092 21.9112 62.1928 21.0219C62.5764 20.1326 63.0864 19.3524 63.7228 18.681C64.3593 18.0097 65.109 17.4866 65.9722 17.1118C66.8353 16.7369 67.803 16.5625 68.8753 16.5887C69.9041 16.6061 70.7934 16.811 71.5431 17.2033C72.3016 17.5869 72.9206 18.11 73.4001 18.7726C73.8796 19.4352 74.2197 20.1937 74.4202 21.0481C74.6207 21.9025 74.6774 22.8092 74.5902 23.7682L74.564 24.0559C74.4507 25.0585 74.1979 26.0001 73.8055 26.8806C73.4132 27.7612 72.8988 28.5327 72.2624 29.1953C71.626 29.8579 70.8762 30.3766 70.0131 30.7515C69.15 31.1177 68.1866 31.2877 67.123 31.2615C66.1029 31.2441 65.2137 31.0436 64.4552 30.66C63.7054 30.2764 63.0908 29.7576 62.6112 29.1038C62.1317 28.4499 61.7917 27.7001 61.5912 26.8544C61.3907 26.0088 61.334 25.1064 61.4212 24.1474ZM65.436 23.8728L65.4098 24.1474C65.3837 24.5397 65.3706 24.9626 65.3706 25.4159C65.3793 25.8606 65.4403 26.2878 65.5537 26.6975C65.6757 27.1073 65.8763 27.4429 66.1552 27.7045C66.4429 27.9573 66.844 28.0924 67.3584 28.1099C67.9163 28.1273 68.3871 28.014 68.7707 27.7699C69.1543 27.5258 69.4682 27.1988 69.7123 26.7891C69.9651 26.3706 70.1569 25.9216 70.2877 25.4421C70.4272 24.9626 70.5187 24.4962 70.5623 24.0428L70.5885 23.7682C70.6234 23.3846 70.6364 22.9661 70.6277 22.5127C70.6277 22.0507 70.5667 21.6148 70.4446 21.205C70.3313 20.7865 70.1308 20.4465 69.8431 20.185C69.5554 19.9147 69.1543 19.7708 68.64 19.7534C68.082 19.736 67.6068 19.8537 67.2145 20.1065C66.8309 20.3593 66.517 20.695 66.2729 21.1135C66.0288 21.5319 65.8414 21.9853 65.7106 22.4735C65.5798 22.953 65.4883 23.4194 65.436 23.8728ZM84.856 16.8502L84.346 19.7142H76.1987L76.6957 16.8502H84.856ZM79.1673 13.3454H83.1559L80.8804 26.5929C80.8456 26.898 80.8456 27.1509 80.8804 27.3514C80.924 27.5519 81.0199 27.7088 81.1681 27.8222C81.3251 27.9268 81.5648 27.9878 81.8874 28.0053C82.0792 28.014 82.2666 28.0096 82.4497 27.9922C82.6328 27.966 82.8159 27.9442 82.999 27.9268L82.7113 30.9215C82.3538 31.0349 81.9877 31.1177 81.6128 31.17C81.2466 31.2223 80.8717 31.2485 80.4881 31.2485C79.625 31.231 78.9101 31.0523 78.3434 30.7123C77.7767 30.3636 77.367 29.8753 77.1141 29.2476C76.87 28.6112 76.7872 27.8701 76.8657 27.0245L79.1673 13.3454ZM91.0939 31.2615C90.1175 31.2441 89.2326 31.061 88.4392 30.7123C87.6546 30.3636 86.992 29.8841 86.4514 29.2738C85.9109 28.6548 85.5142 27.9355 85.2614 27.116C85.0086 26.2965 84.917 25.4029 84.9868 24.4351L85.0391 23.9251C85.1437 22.9138 85.3834 21.9635 85.7583 21.0742C86.1419 20.185 86.652 19.4003 87.2884 18.7203C87.9248 18.0315 88.6746 17.4997 89.5377 17.1248C90.4095 16.7412 91.3816 16.5625 92.454 16.5887C93.4391 16.6061 94.2848 16.8066 94.991 17.1902C95.7059 17.5651 96.2813 18.0751 96.7172 18.7203C97.1619 19.3654 97.467 20.0978 97.6326 20.9173C97.7983 21.7368 97.8332 22.6043 97.7373 23.5197L97.5019 25.1936H86.4253L86.8438 22.565L93.9187 22.5781L93.9971 22.225C94.0581 21.7804 94.0364 21.375 93.9317 21.0088C93.8271 20.6339 93.631 20.3332 93.3432 20.1065C93.0555 19.8798 92.6676 19.7578 92.1794 19.7403C91.6127 19.7316 91.1375 19.8537 90.7539 20.1065C90.3703 20.3593 90.0608 20.6993 89.8254 21.1265C89.59 21.545 89.4069 22.0027 89.2762 22.4997C89.1541 22.9879 89.0626 23.463 89.0015 23.9251L88.9492 24.422C88.9144 24.8754 88.9274 25.3157 88.9885 25.7429C89.0582 26.1701 89.189 26.558 89.3808 26.9068C89.5813 27.2468 89.8516 27.5258 90.1916 27.7437C90.5403 27.953 90.9719 28.0663 91.4862 28.0837C92.1576 28.1012 92.7809 27.9704 93.3563 27.6914C93.9404 27.4124 94.4635 27.0375 94.9256 26.5667L96.6518 28.7507C96.2508 29.3435 95.7451 29.8274 95.1349 30.2023C94.5246 30.5684 93.8663 30.8387 93.1602 31.0131C92.4627 31.1874 91.774 31.2703 91.0939 31.2615Z" fill="#3E3E3E"/>
<path d="M106.028 11.9592L102.72 31H98.5742L101.87 11.9592H106.028ZM111.913 19.9888L111.338 23.2843H102.89L103.465 19.9888H111.913ZM114.11 11.9592L113.535 15.2678H104.276L104.864 11.9592H114.11ZM119.25 16.8502L116.804 31H112.802L115.261 16.8502H119.25ZM115.653 13.2539C115.636 12.6175 115.845 12.1118 116.281 11.7369C116.726 11.3533 117.253 11.1572 117.863 11.1484C118.448 11.1397 118.962 11.3141 119.407 11.6715C119.851 12.0203 120.078 12.4998 120.087 13.1101C120.095 13.7465 119.877 14.2565 119.433 14.6401C118.997 15.015 118.478 15.2068 117.877 15.2155C117.292 15.2242 116.778 15.0542 116.333 14.7055C115.897 14.3568 115.671 13.8729 115.653 13.2539ZM125.409 20.0934L123.5 31H119.511L121.97 16.8502H125.697L125.409 20.0934ZM124.324 23.4282L123.421 23.4674C123.509 22.6217 123.692 21.7848 123.971 20.9565C124.25 20.1283 124.633 19.3829 125.121 18.7203C125.618 18.049 126.229 17.5215 126.952 17.1379C127.676 16.7456 128.526 16.5581 129.502 16.5756C130.287 16.6017 130.932 16.7717 131.438 17.0856C131.952 17.3907 132.345 17.8005 132.615 18.3149C132.894 18.8205 133.073 19.3959 133.151 20.0411C133.229 20.6775 133.229 21.3401 133.151 22.0289L131.66 31H127.645L129.162 21.9896C129.206 21.5624 129.193 21.1788 129.123 20.8388C129.053 20.4988 128.892 20.2373 128.639 20.0542C128.395 19.8624 128.029 19.7578 127.541 19.7403C127.018 19.7316 126.569 19.8362 126.194 20.0542C125.819 20.2634 125.505 20.5511 125.252 20.9173C124.999 21.2747 124.799 21.6758 124.651 22.1204C124.511 22.5563 124.402 22.9922 124.324 23.4282ZM142.802 27.5999L145.705 10.913H149.72L146.228 31H142.645L142.802 27.5999ZM134.877 24.1997L134.903 23.912C135.008 23.0489 135.204 22.1771 135.492 21.2965C135.788 20.416 136.189 19.6139 136.695 18.8903C137.201 18.1667 137.824 17.5913 138.565 17.1641C139.315 16.7369 140.204 16.5407 141.233 16.5756C142.113 16.6105 142.833 16.8676 143.391 17.3471C143.957 17.8179 144.398 18.4195 144.711 19.1518C145.025 19.8755 145.239 20.647 145.352 21.4665C145.474 22.2773 145.522 23.0358 145.496 23.742L145.444 24.239C145.304 24.9887 145.073 25.7821 144.751 26.6191C144.437 27.4473 144.023 28.2189 143.508 28.9338C142.994 29.6487 142.384 30.2241 141.677 30.66C140.971 31.0959 140.169 31.3008 139.271 31.2746C138.321 31.2485 137.541 31.0174 136.93 30.5815C136.32 30.1456 135.849 29.5789 135.518 28.8815C135.195 28.1753 134.986 27.4168 134.89 26.606C134.803 25.7865 134.799 24.9844 134.877 24.1997ZM138.905 23.8989L138.879 24.1736C138.844 24.5223 138.822 24.9146 138.814 25.3505C138.805 25.7865 138.84 26.2093 138.918 26.6191C139.005 27.0288 139.171 27.3732 139.415 27.6522C139.668 27.9312 140.034 28.0837 140.514 28.1099C141.176 28.1273 141.73 27.9704 142.174 27.6391C142.619 27.3078 142.968 26.8806 143.221 26.3575C143.482 25.8257 143.652 25.2764 143.731 24.7097L143.914 23.3235C143.957 22.9487 143.966 22.5563 143.94 22.1466C143.922 21.7368 143.853 21.3576 143.731 21.0088C143.609 20.6514 143.408 20.355 143.129 20.1196C142.859 19.8842 142.48 19.7621 141.991 19.7534C141.451 19.736 140.993 19.858 140.618 20.1196C140.243 20.3811 139.938 20.7255 139.703 21.1527C139.476 21.5799 139.302 22.0376 139.18 22.5258C139.058 23.0053 138.966 23.463 138.905 23.8989ZM155.67 31.2615C154.694 31.2441 153.809 31.061 153.016 30.7123C152.231 30.3636 151.568 29.8841 151.028 29.2738C150.487 28.6548 150.091 27.9355 149.838 27.116C149.585 26.2965 149.493 25.4029 149.563 24.4351L149.615 23.9251C149.72 22.9138 149.96 21.9635 150.335 21.0742C150.718 20.185 151.228 19.4003 151.865 18.7203C152.501 18.0315 153.251 17.4997 154.114 17.1248C154.986 16.7412 155.958 16.5625 157.03 16.5887C158.016 16.6061 158.861 16.8066 159.567 17.1902C160.282 17.5651 160.858 18.0751 161.294 18.7203C161.738 19.3654 162.043 20.0978 162.209 20.9173C162.375 21.7368 162.41 22.6043 162.314 23.5197L162.078 25.1936H151.002L151.42 22.565L158.495 22.5781L158.574 22.225C158.635 21.7804 158.613 21.375 158.508 21.0088C158.404 20.6339 158.207 20.3332 157.92 20.1065C157.632 19.8798 157.244 19.7578 156.756 19.7403C156.189 19.7316 155.714 19.8537 155.33 20.1065C154.947 20.3593 154.637 20.6993 154.402 21.1265C154.166 21.545 153.983 22.0027 153.853 22.4997C153.731 22.9879 153.639 23.463 153.578 23.9251L153.526 24.422C153.491 24.8754 153.504 25.3157 153.565 25.7429C153.635 26.1701 153.765 26.558 153.957 26.9068C154.158 27.2468 154.428 27.5258 154.768 27.7437C155.117 27.953 155.548 28.0663 156.063 28.0837C156.734 28.1012 157.357 27.9704 157.933 27.6914C158.517 27.4124 159.04 27.0375 159.502 26.5667L161.228 28.7507C160.827 29.3435 160.322 29.8274 159.711 30.2023C159.101 30.5684 158.443 30.8387 157.737 31.0131C157.039 31.1874 156.35 31.2703 155.67 31.2615ZM168.787 20.368L166.943 31H162.954L165.413 16.8502H169.14L168.787 20.368ZM173.403 16.7325L172.906 20.538C172.68 20.5032 172.457 20.4727 172.239 20.4465C172.022 20.4203 171.799 20.4073 171.573 20.4073C171.076 20.3986 170.627 20.4596 170.226 20.5904C169.833 20.7124 169.489 20.8999 169.192 21.1527C168.905 21.4055 168.665 21.7194 168.473 22.0943C168.281 22.4604 168.138 22.8789 168.042 23.3497L167.309 22.9835C167.405 22.3122 167.553 21.606 167.754 20.865C167.954 20.1152 168.233 19.4134 168.591 18.7595C168.957 18.0969 169.423 17.5651 169.99 17.1641C170.566 16.7543 171.272 16.5494 172.109 16.5494C172.327 16.5494 172.54 16.5669 172.749 16.6017C172.967 16.6366 173.185 16.6802 173.403 16.7325Z" fill="#0052B4"/>
</svg>
