<svg viewBox="0 0 667 171" fill="none" xmlns="http://www.w3.org/2000/svg">
<path d="M199.378 104.042L223.783 47.7344H242.1L206.272 121H194.246L199.378 104.042ZM193.692 47.7344L200.636 105.502L200.586 121H189.163L176.382 47.7344H193.692ZM235.156 94.6325L235.256 93.5757C235.692 89.6843 236.648 86.0278 238.124 82.606C239.6 79.1843 241.563 76.1819 244.012 73.5988C246.461 71.0157 249.346 69.0029 252.667 67.5604C255.988 66.1179 259.712 65.447 263.838 65.5476C267.796 65.6147 271.218 66.4031 274.103 67.9127C277.022 69.3887 279.403 71.4015 281.248 73.951C283.093 76.5006 284.402 79.4191 285.173 82.7067C285.945 85.9942 286.163 89.4831 285.828 93.1732L285.727 94.2802C285.291 98.1381 284.318 101.761 282.808 105.149C281.299 108.537 279.32 111.506 276.871 114.056C274.422 116.605 271.537 118.601 268.216 120.044C264.895 121.453 261.188 122.107 257.095 122.006C253.17 121.939 249.748 121.168 246.83 119.692C243.945 118.216 241.58 116.22 239.735 113.704C237.89 111.188 236.581 108.303 235.81 105.049C235.038 101.795 234.82 98.3226 235.156 94.6325ZM250.604 93.5757L250.503 94.6325C250.402 96.142 250.352 97.769 250.352 99.5135C250.386 101.224 250.62 102.868 251.057 104.445C251.526 106.021 252.298 107.313 253.371 108.319C254.478 109.292 256.021 109.812 258.001 109.879C260.148 109.946 261.959 109.51 263.435 108.571C264.911 107.632 266.119 106.374 267.058 104.797C268.031 103.187 268.769 101.459 269.272 99.6141C269.809 97.769 270.161 95.9743 270.329 94.2299L270.43 93.1732C270.564 91.6971 270.614 90.0869 270.581 88.3425C270.581 86.5645 270.346 84.8872 269.876 83.3105C269.44 81.7003 268.669 80.392 267.561 79.3856C266.454 78.3456 264.911 77.7921 262.932 77.725C260.785 77.6579 258.957 78.1108 257.447 79.0836C255.971 80.0565 254.763 81.348 253.824 82.9583C252.885 84.5685 252.164 86.3129 251.66 88.1915C251.157 90.0366 250.805 91.8313 250.604 93.5757ZM325.329 66.554L323.366 77.5741H292.017L293.929 66.554H325.329ZM303.439 53.0683H318.787L310.031 104.042C309.897 105.216 309.897 106.189 310.031 106.961C310.199 107.732 310.568 108.336 311.138 108.772C311.742 109.175 312.665 109.41 313.906 109.477C314.644 109.51 315.365 109.494 316.07 109.426C316.774 109.326 317.479 109.242 318.183 109.175L317.076 120.698C315.701 121.134 314.292 121.453 312.849 121.654C311.44 121.855 309.998 121.956 308.522 121.956C305.201 121.889 302.45 121.201 300.269 119.893C298.089 118.551 296.512 116.673 295.539 114.257C294.6 111.808 294.281 108.957 294.583 105.703L303.439 53.0683ZM349.331 122.006C345.574 121.939 342.169 121.235 339.116 119.893C336.097 118.551 333.547 116.706 331.468 114.358C329.388 111.976 327.861 109.208 326.888 106.055C325.916 102.902 325.563 99.4631 325.832 95.7395L326.033 93.777C326.436 89.8856 327.358 86.2291 328.801 82.8073C330.277 79.3856 332.239 76.3664 334.688 73.7498C337.137 71.0996 340.022 69.0532 343.343 67.6107C346.698 66.1347 350.438 65.447 354.564 65.5476C358.355 65.6147 361.609 66.3863 364.326 67.8623C367.077 69.3048 369.291 71.2673 370.969 73.7498C372.679 76.2322 373.854 79.0501 374.491 82.2035C375.128 85.3568 375.263 88.6947 374.893 92.2171L373.988 98.658H331.367L332.977 88.5438L360.2 88.5941L360.502 87.2354C360.737 85.5246 360.653 83.9647 360.25 82.5557C359.848 81.1132 359.093 79.9559 357.986 79.0836C356.879 78.2114 355.386 77.7418 353.508 77.6747C351.327 77.6411 349.499 78.1108 348.023 79.0836C346.547 80.0565 345.356 81.3648 344.45 83.0086C343.544 84.6188 342.84 86.38 342.337 88.2922C341.867 90.1708 341.515 91.9991 341.28 93.777L341.079 95.6892C340.944 97.4336 340.995 99.1277 341.23 100.771C341.498 102.415 342.001 103.908 342.739 105.25C343.511 106.558 344.551 107.632 345.859 108.47C347.201 109.275 348.861 109.712 350.841 109.779C353.424 109.846 355.822 109.343 358.036 108.269C360.284 107.196 362.297 105.753 364.075 103.942L370.717 112.345C369.174 114.626 367.228 116.488 364.88 117.93C362.532 119.339 359.999 120.379 357.282 121.05C354.598 121.721 351.948 122.04 349.331 122.006Z" fill="#3E3E3E"/>
<path d="M406.796 47.7344L394.065 121H378.114L390.795 47.7344H406.796ZM429.44 78.6308L427.226 91.3113H394.719L396.934 78.6308H429.44ZM437.894 47.7344L435.68 60.4653H400.053L402.318 47.7344H437.894ZM457.669 66.554L448.26 121H432.862L442.322 66.554H457.669ZM443.832 52.7161C443.764 50.2672 444.57 48.3215 446.247 46.879C447.958 45.403 449.987 44.6482 452.336 44.6146C454.583 44.5811 456.562 45.252 458.273 46.6274C459.984 47.9693 460.856 49.8143 460.89 52.1626C460.923 54.6115 460.085 56.5739 458.374 58.05C456.697 59.4925 454.701 60.2305 452.386 60.2641C450.138 60.2976 448.159 59.6435 446.448 58.3016C444.771 56.9597 443.899 55.0979 443.832 52.7161ZM481.37 79.0333L474.023 121H458.676L468.136 66.554H482.477L481.37 79.0333ZM477.194 91.8649L473.721 92.0158C474.057 88.7618 474.761 85.5413 475.835 82.3544C476.908 79.1675 478.384 76.2993 480.263 73.7498C482.175 71.1667 484.523 69.1371 487.308 67.6611C490.092 66.1515 493.363 65.4302 497.12 65.4973C500.139 65.598 502.622 66.2521 504.567 67.4598C506.547 68.6339 508.056 70.2106 509.096 72.1898C510.17 74.1355 510.857 76.3496 511.159 78.832C511.461 81.2809 511.461 83.8305 511.159 86.4807L505.423 121H489.975L495.812 86.3297C495.98 84.6859 495.929 83.2099 495.661 81.9016C495.393 80.5932 494.772 79.5868 493.799 78.8824C492.86 78.1443 491.451 77.7418 489.572 77.6747C487.559 77.6411 485.832 78.0437 484.389 78.8824C482.947 79.6875 481.739 80.7945 480.766 82.2035C479.793 83.5789 479.022 85.122 478.452 86.8329C477.915 88.5102 477.495 90.1875 477.194 91.8649ZM548.295 107.917L559.466 43.7089H574.915L561.479 121H547.692L548.295 107.917ZM517.802 94.8337L517.902 93.7267C518.305 90.4056 519.06 87.0509 520.167 83.6627C521.307 80.2745 522.85 77.1883 524.796 74.4039C526.742 71.6196 529.14 69.4055 531.992 67.7617C534.877 66.1179 538.298 65.3631 542.257 65.4973C545.645 65.6315 548.413 66.6211 550.56 68.4662C552.74 70.2777 554.434 72.5924 555.642 75.4103C556.85 78.1947 557.672 81.1635 558.108 84.3169C558.577 87.4367 558.762 90.3553 558.661 93.0725L558.46 94.9847C557.923 97.8697 557.034 100.922 555.793 104.143C554.585 107.33 552.992 110.299 551.013 113.049C549.033 115.8 546.685 118.014 543.968 119.692C541.251 121.369 538.164 122.157 534.709 122.057C531.052 121.956 528.05 121.067 525.702 119.39C523.354 117.712 521.542 115.532 520.267 112.848C519.026 110.131 518.221 107.212 517.852 104.093C517.516 100.939 517.5 97.8529 517.802 94.8337ZM533.3 93.6764L533.199 94.7331C533.065 96.075 532.981 97.5845 532.948 99.2619C532.914 100.939 533.048 102.566 533.35 104.143C533.686 105.72 534.323 107.045 535.263 108.118C536.235 109.192 537.644 109.779 539.489 109.879C542.039 109.946 544.169 109.343 545.88 108.068C547.591 106.793 548.933 105.149 549.906 103.136C550.912 101.09 551.566 98.9767 551.868 96.7962L552.573 91.4623C552.74 90.0198 552.774 88.5102 552.673 86.9335C552.606 85.3568 552.338 83.8976 551.868 82.5557C551.398 81.1803 550.627 80.0397 549.553 79.134C548.513 78.2282 547.054 77.7586 545.176 77.725C543.096 77.6579 541.334 78.1276 539.892 79.134C538.449 80.1404 537.275 81.4654 536.37 83.1092C535.497 84.753 534.826 86.5142 534.357 88.3928C533.887 90.2379 533.535 91.9991 533.3 93.6764ZM597.81 122.006C594.053 121.939 590.648 121.235 587.595 119.893C584.576 118.551 582.026 116.706 579.946 114.358C577.867 111.976 576.34 109.208 575.367 106.055C574.395 102.902 574.042 99.4631 574.311 95.7395L574.512 93.777C574.914 89.8856 575.837 86.2291 577.28 82.8073C578.756 79.3856 580.718 76.3664 583.167 73.7498C585.616 71.0996 588.501 69.0532 591.822 67.6107C595.177 66.1347 598.917 65.447 603.043 65.5476C606.834 65.6147 610.088 66.3863 612.805 67.8623C615.556 69.3048 617.77 71.2673 619.447 73.7498C621.158 76.2322 622.332 79.0501 622.97 82.2035C623.607 85.3568 623.741 88.6947 623.372 92.2171L622.467 98.658H579.846L581.456 88.5438L608.679 88.5941L608.981 87.2354C609.216 85.5246 609.132 83.9647 608.729 82.5557C608.327 81.1132 607.572 79.9559 606.465 79.0836C605.358 78.2114 603.865 77.7418 601.987 77.6747C599.806 77.6411 597.978 78.1108 596.502 79.0836C595.026 80.0565 593.835 81.3648 592.929 83.0086C592.023 84.6188 591.319 86.38 590.816 88.2922C590.346 90.1708 589.994 91.9991 589.759 93.777L589.558 95.6892C589.423 97.4336 589.474 99.1277 589.709 100.771C589.977 102.415 590.48 103.908 591.218 105.25C591.99 106.558 593.03 107.632 594.338 108.47C595.68 109.275 597.34 109.712 599.32 109.779C601.903 109.846 604.301 109.343 606.515 108.269C608.763 107.196 610.776 105.753 612.554 103.942L619.196 112.345C617.653 114.626 615.707 116.488 613.359 117.93C611.011 119.339 608.478 120.379 605.761 121.05C603.077 121.721 600.427 122.04 597.81 122.006ZM648.281 80.09L641.186 121H625.838L635.298 66.554H649.639L648.281 80.09ZM666.044 66.1012L664.131 80.7442C663.259 80.61 662.404 80.4926 661.565 80.392C660.726 80.2913 659.871 80.241 658.999 80.241C657.087 80.2075 655.359 80.4423 653.816 80.9455C652.306 81.4151 650.981 82.1364 649.841 83.1092C648.734 84.0821 647.811 85.2898 647.073 86.7323C646.335 88.1412 645.781 89.7514 645.412 91.5629L642.595 90.154C642.964 87.5709 643.534 84.8536 644.305 82.0022C645.077 79.1172 646.15 76.4167 647.526 73.9007C648.935 71.3512 650.73 69.3048 652.91 67.7617C655.124 66.185 657.841 65.3967 661.062 65.3967C661.901 65.3967 662.722 65.4638 663.528 65.598C664.366 65.7321 665.205 65.8999 666.044 66.1012Z" fill="#0052B4"/>
<path d="M69.2609 154.522C107.513 154.522 138.522 123.513 138.522 85.2609C138.522 47.0092 107.513 16 69.2609 16C31.0092 16 0 47.0092 0 85.2609C0 123.513 31.0092 154.522 69.2609 154.522Z" fill="#0052B4"/>
<path d="M69 110C75.6304 110 81.9893 107.366 86.6777 102.678C91.3661 97.9893 94 91.6304 94 85C94 78.3696 91.3661 72.0107 86.6777 67.3223C81.9893 62.6339 75.6304 60 69 60C62.3696 60 56.0107 62.6339 51.3223 67.3223C46.6339 72.0107 44 78.3696 44 85C44 91.6304 46.6339 97.9893 51.3223 102.678C56.0107 107.366 62.3696 110 69 110ZM80.0352 80.4102L67.5352 92.9102C66.6172 93.8281 65.1328 93.8281 64.2246 92.9102L57.9746 86.6602C57.0566 85.7422 57.0566 84.2578 57.9746 83.3496C58.8926 82.4414 60.377 82.4316 61.2852 83.3496L65.875 87.9395L76.7148 77.0898C77.6328 76.1719 79.1172 76.1719 80.0254 77.0898C80.9336 78.0078 80.9434 79.4922 80.0254 80.4004L80.0352 80.4102Z" fill="white"/>
<path d="M69.1595 31L72.0232 39.8131H81.2893L73.7925 45.2598L76.6563 54.0729L69.1595 48.6259L61.6623 54.0729L64.5261 45.2598L57.0293 39.8131H66.2957L69.1595 31Z" fill="#FFDA44"/>
<path d="M31.0929 46.7695L39.3501 50.9762L45.9023 44.4243L44.4523 53.5764L52.7092 57.7834L43.5568 59.2331L42.1071 68.3858L37.9001 60.1289L28.748 61.5789L35.3003 55.0267L31.0929 46.7695Z" fill="#FFDA44"/>
<path d="M15.3223 84.8367L24.1354 81.9729V72.7065L29.5817 80.2037L38.3951 77.3399L32.9478 84.8367L38.3951 92.3335L29.5817 89.4701L24.1354 96.9669V87.7005L15.3223 84.8367Z" fill="#FFDA44"/>
<path d="M31.0929 122.904L35.2999 114.647L28.748 108.095L37.9004 109.545L42.1068 101.288L43.5568 110.44L52.7088 111.89L44.453 116.097L45.9023 125.249L39.3501 118.697L31.0929 122.904Z" fill="#FFDA44"/>
<path d="M69.1595 138.672L66.2953 129.859H57.0293L64.5264 124.413L61.6623 115.6L69.1595 121.046L76.6563 115.6L73.7925 124.413L81.2893 129.859H72.0229L69.1595 138.672Z" fill="#FFDA44"/>
<path d="M107.227 122.904L98.97 118.697L92.4175 125.25L93.8675 116.097L85.6113 111.89L94.7634 110.44L96.213 101.288L100.42 109.545L109.572 108.095L103.02 114.648L107.227 122.904Z" fill="#FFDA44"/>
<path d="M123 84.8367L114.187 87.7005V96.9669L108.74 89.4697L99.9277 92.3335L105.374 84.8367L99.9277 77.3399L108.74 80.2037L114.187 72.7065V81.9733L123 84.8367Z" fill="#FFDA44"/>
<path d="M107.227 46.7692L103.02 55.0264L109.572 61.5786L100.419 60.1282L96.213 68.3851L94.7634 59.2327L85.6113 57.7827L93.8675 53.576L92.4175 44.4243L98.9704 50.9762L107.227 46.7692Z" fill="#FFDA44"/>
</svg>
