<svg viewBox="0 0 1278 171" fill="none" xmlns="http://www.w3.org/2000/svg">
<path d="M209.991 104.042L234.396 47.7344H252.712L216.884 121H204.858L209.991 104.042ZM204.304 47.7344L211.249 105.502L211.198 121H199.776L186.994 47.7344H204.304ZM245.768 94.6325L245.869 93.5757C246.305 89.6843 247.261 86.0278 248.737 82.606C250.213 79.1843 252.175 76.1819 254.624 73.5988C257.073 71.0157 259.958 69.0029 263.279 67.5604C266.6 66.1179 270.324 65.447 274.45 65.5476C278.409 65.6147 281.83 66.4031 284.715 67.9127C287.634 69.3887 290.016 71.4015 291.861 73.951C293.706 76.5006 295.014 79.4191 295.786 82.7067C296.557 85.9942 296.775 89.4831 296.44 93.1732L296.339 94.2802C295.903 98.1381 294.93 101.761 293.421 105.149C291.911 108.537 289.932 111.506 287.483 114.056C285.034 116.605 282.149 118.601 278.828 120.044C275.507 121.453 271.8 122.107 267.707 122.006C263.782 121.939 260.361 121.168 257.442 119.692C254.557 118.216 252.192 116.22 250.347 113.704C248.502 111.188 247.194 108.303 246.422 105.049C245.651 101.795 245.432 98.3226 245.768 94.6325ZM261.216 93.5757L261.115 94.6325C261.015 96.142 260.964 97.769 260.964 99.5135C260.998 101.224 261.233 102.868 261.669 104.445C262.139 106.021 262.91 107.313 263.984 108.319C265.091 109.292 266.634 109.812 268.613 109.879C270.76 109.946 272.572 109.51 274.048 108.571C275.524 107.632 276.731 106.374 277.671 104.797C278.643 103.187 279.382 101.459 279.885 99.6141C280.421 97.769 280.774 95.9743 280.941 94.2299L281.042 93.1732C281.176 91.6971 281.227 90.0869 281.193 88.3425C281.193 86.5645 280.958 84.8872 280.489 83.3105C280.052 81.7003 279.281 80.392 278.174 79.3856C277.067 78.3456 275.524 77.7921 273.544 77.725C271.397 77.6579 269.569 78.1108 268.06 79.0836C266.584 80.0565 265.376 81.348 264.437 82.9583C263.497 84.5685 262.776 86.3129 262.273 88.1915C261.77 90.0366 261.417 91.8313 261.216 93.5757ZM335.941 66.554L333.978 77.5741H302.629L304.541 66.554H335.941ZM314.052 53.0683H329.399L320.644 104.042C320.51 105.216 320.51 106.189 320.644 106.961C320.811 107.732 321.18 108.336 321.751 108.772C322.355 109.175 323.277 109.41 324.518 109.477C325.256 109.51 325.978 109.494 326.682 109.426C327.387 109.326 328.091 109.242 328.795 109.175L327.688 120.698C326.313 121.134 324.904 121.453 323.462 121.654C322.053 121.855 320.61 121.956 319.134 121.956C315.813 121.889 313.062 121.201 310.882 119.893C308.701 118.551 307.124 116.673 306.152 114.257C305.212 111.808 304.894 108.957 305.196 105.703L314.052 53.0683ZM359.943 122.006C356.186 121.939 352.781 121.235 349.729 119.893C346.709 118.551 344.16 116.706 342.08 114.358C340 111.976 338.474 109.208 337.501 106.055C336.528 102.902 336.176 99.4631 336.444 95.7395L336.645 93.777C337.048 89.8856 337.97 86.2291 339.413 82.8073C340.889 79.3856 342.851 76.3664 345.3 73.7498C347.749 71.0996 350.634 69.0532 353.955 67.6107C357.31 66.1347 361.05 65.447 365.177 65.5476C368.967 65.6147 372.221 66.3863 374.939 67.8623C377.69 69.3048 379.904 71.2673 381.581 73.7498C383.292 76.2322 384.466 79.0501 385.103 82.2035C385.741 85.3568 385.875 88.6947 385.506 92.2171L384.6 98.658H341.979L343.59 88.5438L370.812 88.5941L371.114 87.2354C371.349 85.5246 371.265 83.9647 370.863 82.5557C370.46 81.1132 369.705 79.9559 368.598 79.0836C367.491 78.2114 365.999 77.7418 364.12 77.6747C361.939 77.6411 360.111 78.1108 358.635 79.0836C357.159 80.0565 355.968 81.3648 355.062 83.0086C354.157 84.6188 353.452 86.38 352.949 88.2922C352.479 90.1708 352.127 91.9991 351.892 93.777L351.691 95.6892C351.557 97.4336 351.607 99.1277 351.842 100.771C352.11 102.415 352.614 103.908 353.352 105.25C354.123 106.558 355.163 107.632 356.471 108.47C357.813 109.275 359.474 109.712 361.453 109.779C364.036 109.846 366.435 109.343 368.649 108.269C370.896 107.196 372.909 105.753 374.687 103.942L381.329 112.345C379.786 114.626 377.84 116.488 375.492 117.93C373.144 119.339 370.611 120.379 367.894 121.05C365.21 121.721 362.56 122.04 359.943 122.006Z" fill="#3E3E3E"/>
<path d="M417.409 47.7344L404.678 121H388.726L401.407 47.7344H417.409ZM440.052 78.6308L437.838 91.3113H405.332L407.546 78.6308H440.052ZM448.506 47.7344L446.292 60.4653H410.666L412.93 47.7344H448.506ZM468.282 66.554L458.872 121H443.474L452.934 66.554H468.282ZM454.444 52.7161C454.377 50.2672 455.182 48.3215 456.859 46.879C458.57 45.403 460.6 44.6482 462.948 44.6146C465.196 44.5811 467.175 45.252 468.886 46.6274C470.597 47.9693 471.469 49.8143 471.502 52.1626C471.536 54.6115 470.697 56.5739 468.986 58.05C467.309 59.4925 465.313 60.2305 462.998 60.2641C460.751 60.2976 458.771 59.6435 457.061 58.3016C455.383 56.9597 454.511 55.0979 454.444 52.7161ZM491.982 79.0333L484.636 121H469.288L478.748 66.554H493.089L491.982 79.0333ZM487.806 91.8649L484.334 92.0158C484.669 88.7618 485.374 85.5413 486.447 82.3544C487.521 79.1675 488.997 76.2993 490.875 73.7498C492.788 71.1667 495.136 69.1371 497.92 67.6611C500.705 66.1515 503.975 65.4302 507.733 65.4973C510.752 65.598 513.234 66.2521 515.18 67.4598C517.159 68.6339 518.669 70.2106 519.709 72.1898C520.782 74.1355 521.47 76.3496 521.772 78.832C522.074 81.2809 522.074 83.8305 521.772 86.4807L516.035 121H500.587L506.424 86.3297C506.592 84.6859 506.542 83.2099 506.273 81.9016C506.005 80.5932 505.384 79.5868 504.411 78.8824C503.472 78.1443 502.063 77.7418 500.185 77.6747C498.172 77.6411 496.444 78.0437 495.002 78.8824C493.559 79.6875 492.351 80.7945 491.379 82.2035C490.406 83.5789 489.634 85.122 489.064 86.8329C488.527 88.5102 488.108 90.1875 487.806 91.8649ZM558.908 107.917L570.079 43.7089H585.527L572.091 121H558.304L558.908 107.917ZM528.414 94.8337L528.515 93.7267C528.917 90.4056 529.672 87.0509 530.779 83.6627C531.92 80.2745 533.463 77.1883 535.408 74.4039C537.354 71.6196 539.753 69.4055 542.604 67.7617C545.489 66.1179 548.911 65.3631 552.869 65.4973C556.258 65.6315 559.025 66.6211 561.172 68.4662C563.353 70.2777 565.047 72.5924 566.254 75.4103C567.462 78.1947 568.284 81.1635 568.72 84.3169C569.19 87.4367 569.374 90.3553 569.274 93.0725L569.072 94.9847C568.536 97.8697 567.647 100.922 566.405 104.143C565.198 107.33 563.604 110.299 561.625 113.049C559.646 115.8 557.297 118.014 554.58 119.692C551.863 121.369 548.777 122.157 545.321 122.057C541.665 121.956 538.662 121.067 536.314 119.39C533.966 117.712 532.154 115.532 530.88 112.848C529.638 110.131 528.833 107.212 528.464 104.093C528.129 100.939 528.112 97.8529 528.414 94.8337ZM543.912 93.6764L543.812 94.7331C543.678 96.075 543.594 97.5845 543.56 99.2619C543.527 100.939 543.661 102.566 543.963 104.143C544.298 105.72 544.936 107.045 545.875 108.118C546.848 109.192 548.257 109.779 550.102 109.879C552.651 109.946 554.782 109.343 556.492 108.068C558.203 106.793 559.545 105.149 560.518 103.136C561.524 101.09 562.179 98.9767 562.48 96.7962L563.185 91.4623C563.353 90.0198 563.386 88.5102 563.286 86.9335C563.218 85.3568 562.95 83.8976 562.48 82.5557C562.011 81.1803 561.239 80.0397 560.166 79.134C559.126 78.2282 557.666 77.7586 555.788 77.725C553.708 77.6579 551.947 78.1276 550.504 79.134C549.062 80.1404 547.888 81.4654 546.982 83.1092C546.11 84.753 545.439 86.5142 544.969 88.3928C544.499 90.2379 544.147 91.9991 543.912 93.6764ZM608.422 122.006C604.665 121.939 601.26 121.235 598.207 119.893C595.188 118.551 592.639 116.706 590.559 114.358C588.479 111.976 586.953 109.208 585.98 106.055C585.007 102.902 584.655 99.4631 584.923 95.7395L585.124 93.777C585.527 89.8856 586.449 86.2291 587.892 82.8073C589.368 79.3856 591.33 76.3664 593.779 73.7498C596.228 71.0996 599.113 69.0532 602.434 67.6107C605.789 66.1347 609.529 65.447 613.656 65.5476C617.446 65.6147 620.7 66.3863 623.418 67.8623C626.168 69.3048 628.383 71.2673 630.06 73.7498C631.771 76.2322 632.945 79.0501 633.582 82.2035C634.22 85.3568 634.354 88.6947 633.985 92.2171L633.079 98.658H590.458L592.068 88.5438L619.291 88.5941L619.593 87.2354C619.828 85.5246 619.744 83.9647 619.342 82.5557C618.939 81.1132 618.184 79.9559 617.077 79.0836C615.97 78.2114 614.477 77.7418 612.599 77.6747C610.418 77.6411 608.59 78.1108 607.114 79.0836C605.638 80.0565 604.447 81.3648 603.541 83.0086C602.636 84.6188 601.931 86.38 601.428 88.2922C600.958 90.1708 600.606 91.9991 600.371 93.777L600.17 95.6892C600.036 97.4336 600.086 99.1277 600.321 100.771C600.589 102.415 601.092 103.908 601.83 105.25C602.602 106.558 603.642 107.632 604.95 108.47C606.292 109.275 607.953 109.712 609.932 109.779C612.515 109.846 614.914 109.343 617.128 108.269C619.375 107.196 621.388 105.753 623.166 103.942L629.808 112.345C628.265 114.626 626.319 116.488 623.971 117.93C621.623 119.339 619.09 120.379 616.373 121.05C613.689 121.721 611.039 122.04 608.422 122.006ZM658.893 80.09L651.798 121H636.45L645.911 66.554H660.252L658.893 80.09ZM676.656 66.1012L674.744 80.7442C673.872 80.61 673.016 80.4926 672.177 80.392C671.339 80.2913 670.483 80.241 669.611 80.241C667.699 80.2075 665.971 80.4423 664.428 80.9455C662.919 81.4151 661.594 82.1364 660.453 83.1092C659.346 84.0821 658.423 85.2898 657.685 86.7323C656.947 88.1412 656.394 89.7514 656.025 91.5629L653.207 90.154C653.576 87.5709 654.146 84.8536 654.918 82.0022C655.689 79.1172 656.763 76.4167 658.138 73.9007C659.547 71.3512 661.342 69.3048 663.522 67.7617C665.737 66.185 668.454 65.3967 671.674 65.3967C672.513 65.3967 673.335 65.4638 674.14 65.598C674.979 65.7321 675.817 65.8999 676.656 66.1012Z" fill="#0052B4"/>
<path d="M748.814 113.1L747.405 121H709.716L711.075 113.1H748.814ZM724.409 47.7344L711.678 121H702.168L714.899 47.7344H724.409ZM749.67 79.2346L748.311 87.1348H715.553L716.962 79.2346H749.67ZM759.633 47.7344L758.224 55.685H721.038L722.447 47.7344H759.633ZM791.385 107.917L798.53 66.554H807.689L798.228 121H789.523L791.385 107.917ZM794.807 96.9472L798.53 96.7962C798.094 100.218 797.323 103.472 796.216 106.558C795.109 109.611 793.599 112.328 791.687 114.71C789.808 117.058 787.46 118.903 784.642 120.245C781.858 121.554 778.553 122.157 774.729 122.057C771.743 121.956 769.244 121.352 767.231 120.245C765.252 119.138 763.692 117.645 762.552 115.767C761.411 113.888 760.656 111.741 760.287 109.326C759.918 106.91 759.868 104.361 760.136 101.677L766.024 66.554H775.132L769.244 101.828C769.11 103.304 769.093 104.763 769.194 106.206C769.295 107.615 769.596 108.906 770.1 110.081C770.603 111.255 771.374 112.211 772.414 112.949C773.488 113.653 774.897 114.039 776.641 114.106C780.264 114.24 783.334 113.569 785.85 112.093C788.366 110.584 790.362 108.504 791.838 105.854C793.314 103.204 794.303 100.235 794.807 96.9472ZM828.923 75.5109L821.023 121H811.915L821.376 66.554H830.232L828.923 75.5109ZM846.586 66.1012L845.73 74.8568C845.026 74.7226 844.305 74.6052 843.567 74.5046C842.862 74.4039 842.158 74.3536 841.453 74.3536C839.273 74.32 837.31 74.6555 835.566 75.36C833.855 76.0309 832.328 76.987 830.987 78.2282C829.678 79.4694 828.554 80.9287 827.615 82.606C826.709 84.2834 825.988 86.0949 825.451 88.0406L822.583 89.5502C822.952 86.8329 823.556 84.0485 824.395 81.1971C825.267 78.3456 826.458 75.7122 827.967 73.2969C829.511 70.8815 831.439 68.9358 833.754 67.4598C836.102 65.9837 838.92 65.296 842.208 65.3967C842.946 65.3967 843.667 65.4638 844.372 65.598C845.11 65.7321 845.848 65.8999 846.586 66.1012ZM847.19 94.6828L847.341 93.5254C847.743 89.8688 848.649 86.3465 850.058 82.9583C851.5 79.5701 853.396 76.5509 855.744 73.9007C858.092 71.2505 860.877 69.1707 864.097 67.6611C867.317 66.1515 870.907 65.447 874.865 65.5476C878.69 65.6147 881.961 66.4366 884.678 68.0133C887.429 69.59 889.643 71.6866 891.32 74.3033C893.031 76.8864 894.222 79.8049 894.893 83.0589C895.564 86.3129 895.731 89.6676 895.396 93.1229L895.295 94.2802C894.859 97.9368 893.92 101.442 892.477 104.797C891.035 108.152 889.123 111.137 886.741 113.754C884.393 116.371 881.608 118.434 878.388 119.943C875.167 121.419 871.595 122.107 867.67 122.006C863.879 121.939 860.608 121.134 857.857 119.591C855.14 118.014 852.943 115.934 851.265 113.351C849.588 110.768 848.414 107.867 847.743 104.646C847.072 101.426 846.888 98.1045 847.19 94.6828ZM856.398 93.5254L856.297 94.7331C856.063 96.8465 856.046 99.0438 856.247 101.325C856.482 103.606 857.019 105.72 857.857 107.665C858.73 109.611 859.988 111.204 861.631 112.446C863.275 113.687 865.405 114.341 868.022 114.408C870.806 114.475 873.255 113.938 875.369 112.798C877.482 111.624 879.277 110.047 880.753 108.068C882.262 106.089 883.453 103.891 884.326 101.476C885.231 99.0606 885.835 96.662 886.137 94.2802L886.238 93.1229C886.473 91.0094 886.473 88.8121 886.238 86.531C886.036 84.2163 885.5 82.0693 884.627 80.09C883.789 78.0773 882.548 76.4502 880.904 75.209C879.26 73.9343 877.13 73.2633 874.513 73.1962C871.729 73.0956 869.263 73.6491 867.116 74.8568C865.003 76.0309 863.208 77.6244 861.732 79.6372C860.256 81.65 859.065 83.8808 858.159 86.3297C857.287 88.745 856.7 91.1436 856.398 93.5254ZM918.543 77.5741L907.372 141.933H898.214L911.297 66.554H919.65L918.543 77.5741ZM951.301 93.0222L951.201 94.0789C950.764 97.3665 949.959 100.688 948.785 104.042C947.645 107.363 946.085 110.399 944.105 113.15C942.126 115.901 939.694 118.098 936.809 119.742C933.958 121.386 930.603 122.157 926.745 122.057C923.357 121.99 920.455 121.252 918.04 119.843C915.624 118.4 913.679 116.505 912.203 114.157C910.727 111.775 909.67 109.125 909.033 106.206C908.429 103.254 908.227 100.235 908.429 97.1484L909.133 91.5629C909.703 88.2754 910.66 85.0717 912.001 81.9519C913.377 78.7985 915.121 75.9638 917.235 73.4478C919.348 70.9318 921.847 68.9694 924.732 67.5604C927.651 66.1179 930.955 65.447 934.645 65.5476C938.369 65.6483 941.388 66.554 943.703 68.2649C946.051 69.9422 947.829 72.1395 949.037 74.8568C950.278 77.5405 951.05 80.4758 951.351 83.6627C951.653 86.8161 951.637 89.9359 951.301 93.0222ZM942.042 94.0286L942.193 92.9216C942.428 90.9088 942.478 88.7786 942.344 86.531C942.244 84.2834 941.824 82.1867 941.086 80.241C940.382 78.2618 939.258 76.6348 937.715 75.36C936.205 74.0852 934.142 73.4143 931.525 73.3472C929.446 73.2801 927.466 73.6323 925.588 74.4039C923.743 75.1419 922.065 76.1986 920.556 77.5741C919.046 78.9159 917.755 80.4758 916.681 82.2538C915.608 83.9982 914.819 85.8433 914.316 87.789L912.152 100.922C912.119 103.304 912.639 105.518 913.712 107.565C914.786 109.577 916.245 111.204 918.09 112.446C919.969 113.687 922.099 114.341 924.481 114.408C927.265 114.475 929.68 113.922 931.727 112.748C933.807 111.54 935.551 109.93 936.96 107.917C938.369 105.871 939.493 103.64 940.331 101.224C941.17 98.7754 941.74 96.3769 942.042 94.0286ZM981.09 122.006C977.367 121.939 974.129 121.201 971.379 119.792C968.661 118.35 966.431 116.421 964.686 114.006C962.975 111.557 961.751 108.772 961.013 105.652C960.275 102.533 960.057 99.2619 960.359 95.8401L960.56 93.6764C960.895 90.1875 961.751 86.7658 963.126 83.4111C964.502 80.023 966.33 76.9702 968.611 74.253C970.926 71.5357 973.643 69.3887 976.763 67.812C979.916 66.2018 983.405 65.447 987.229 65.5476C991.02 65.6147 994.174 66.4198 996.69 67.963C999.206 69.5061 1001.17 71.5525 1002.58 74.102C1004.02 76.618 1004.96 79.4527 1005.39 82.606C1005.83 85.7259 1005.86 88.9295 1005.5 92.2171L1004.94 96.3936H965.441L966.649 88.7954L996.79 88.8457L996.941 88.0406C997.277 85.6252 997.142 83.2937 996.539 81.0461C995.935 78.7985 994.828 76.9534 993.217 75.5109C991.641 74.0349 989.511 73.2633 986.827 73.1962C984.042 73.0956 981.627 73.6659 979.581 74.9071C977.534 76.1148 975.824 77.7586 974.448 79.8384C973.073 81.8848 971.983 84.1324 971.177 86.5813C970.406 88.9966 969.869 91.3617 969.567 93.6764L969.366 95.7898C969.165 97.9368 969.232 100.101 969.567 102.281C969.903 104.462 970.54 106.458 971.479 108.269C972.452 110.047 973.794 111.506 975.505 112.647C977.216 113.754 979.329 114.341 981.845 114.408C984.898 114.475 987.632 113.821 990.047 112.446C992.496 111.037 994.727 109.259 996.74 107.112L1001.92 111.54C1000.35 113.855 998.467 115.8 996.287 117.377C994.106 118.954 991.725 120.128 989.142 120.899C986.558 121.671 983.875 122.04 981.09 122.006ZM983.757 58.5029L995.582 43.7089H1007.16L991.758 58.5029H983.757ZM1034.13 122.006C1030.4 121.939 1027.17 121.201 1024.42 119.792C1021.7 118.35 1019.47 116.421 1017.72 114.006C1016.01 111.557 1014.79 108.772 1014.05 105.652C1013.31 102.533 1013.09 99.2619 1013.4 95.8401L1013.6 93.6764C1013.93 90.1875 1014.79 86.7658 1016.16 83.4111C1017.54 80.023 1019.37 76.9702 1021.65 74.253C1023.96 71.5357 1026.68 69.3887 1029.8 67.812C1032.95 66.2018 1036.44 65.447 1040.27 65.5476C1044.06 65.6147 1047.21 66.4198 1049.73 67.963C1052.24 69.5061 1054.21 71.5525 1055.61 74.102C1057.06 76.618 1058 79.4527 1058.43 82.606C1058.87 85.7259 1058.9 88.9295 1058.53 92.2171L1057.98 96.3936H1018.48L1019.69 88.7954L1049.83 88.8457L1049.98 88.0406C1050.31 85.6252 1050.18 83.2937 1049.58 81.0461C1048.97 78.7985 1047.86 76.9534 1046.25 75.5109C1044.68 74.0349 1042.55 73.2633 1039.86 73.1962C1037.08 73.0956 1034.66 73.6659 1032.62 74.9071C1030.57 76.1148 1028.86 77.7586 1027.49 79.8384C1026.11 81.8848 1025.02 84.1324 1024.21 86.5813C1023.44 88.9966 1022.91 91.3617 1022.6 93.6764L1022.4 95.7898C1022.2 97.9368 1022.27 100.101 1022.6 102.281C1022.94 104.462 1023.58 106.458 1024.52 108.269C1025.49 110.047 1026.83 111.506 1028.54 112.647C1030.25 113.754 1032.37 114.341 1034.88 114.408C1037.93 114.475 1040.67 113.821 1043.08 112.446C1045.53 111.037 1047.76 109.259 1049.78 107.112L1054.96 111.54C1053.38 113.855 1051.5 115.8 1049.32 117.377C1047.14 118.954 1044.76 120.128 1042.18 120.899C1039.6 121.671 1036.91 122.04 1034.13 122.006ZM1080.57 78.7314L1073.23 121H1064.12L1073.58 66.554H1082.18L1080.57 78.7314ZM1076.35 91.7139L1072.62 91.6133C1073.09 88.3593 1073.95 85.1723 1075.19 82.0525C1076.46 78.8991 1078.12 76.0645 1080.17 73.5485C1082.25 71.0325 1084.72 69.0532 1087.57 67.6107C1090.45 66.1347 1093.74 65.447 1097.43 65.5476C1100.35 65.6147 1102.78 66.185 1104.73 67.2585C1106.71 68.2984 1108.25 69.7242 1109.36 71.5357C1110.46 73.3472 1111.2 75.4439 1111.57 77.8257C1111.94 80.1739 1111.97 82.6731 1111.67 85.3233L1105.73 121H1096.57L1102.61 85.1723C1102.85 82.9918 1102.76 81.0293 1102.36 79.2849C1101.99 77.507 1101.15 76.098 1099.85 75.0581C1098.57 73.9846 1096.73 73.4143 1094.31 73.3472C1091.76 73.2801 1089.46 73.7665 1087.42 74.8065C1085.37 75.8464 1083.57 77.2721 1082.03 79.0836C1080.52 80.8616 1079.28 82.8576 1078.31 85.0717C1077.37 87.2522 1076.71 89.4663 1076.35 91.7139ZM1135.82 78.7314L1128.48 121H1119.37L1128.83 66.554H1137.43L1135.82 78.7314ZM1131.6 91.7139L1127.87 91.6133C1128.34 88.3593 1129.2 85.1723 1130.44 82.0525C1131.71 78.8991 1133.37 76.0645 1135.42 73.5485C1137.5 71.0325 1139.97 69.0532 1142.82 67.6107C1145.7 66.1347 1148.99 65.447 1152.68 65.5476C1155.6 65.6147 1158.03 66.185 1159.98 67.2585C1161.96 68.2984 1163.5 69.7242 1164.61 71.5357C1165.71 73.3472 1166.45 75.4439 1166.82 77.8257C1167.19 80.1739 1167.22 82.6731 1166.92 85.3233L1160.98 121H1151.83L1157.86 85.1723C1158.1 82.9918 1158.01 81.0293 1157.61 79.2849C1157.24 77.507 1156.4 76.098 1155.1 75.0581C1153.82 73.9846 1151.98 73.4143 1149.56 73.3472C1147.01 73.2801 1144.71 73.7665 1142.67 74.8065C1140.62 75.8464 1138.83 77.2721 1137.28 79.0836C1135.77 80.8616 1134.53 82.8576 1133.56 85.0717C1132.62 87.2522 1131.97 89.4663 1131.6 91.7139ZM1197.67 122.006C1193.94 121.939 1190.71 121.201 1187.95 119.792C1185.24 118.35 1183.01 116.421 1181.26 114.006C1179.55 111.557 1178.33 108.772 1177.59 105.652C1176.85 102.533 1176.63 99.2619 1176.93 95.8401L1177.14 93.6764C1177.47 90.1875 1178.33 86.7658 1179.7 83.4111C1181.08 80.023 1182.91 76.9702 1185.19 74.253C1187.5 71.5357 1190.22 69.3887 1193.34 67.812C1196.49 66.2018 1199.98 65.447 1203.81 65.5476C1207.6 65.6147 1210.75 66.4198 1213.27 67.963C1215.78 69.5061 1217.74 71.5525 1219.15 74.102C1220.6 76.618 1221.53 79.4527 1221.97 82.606C1222.41 85.7259 1222.44 88.9295 1222.07 92.2171L1221.52 96.3936H1182.02L1183.22 88.7954L1213.37 88.8457L1213.52 88.0406C1213.85 85.6252 1213.72 83.2937 1213.11 81.0461C1212.51 78.7985 1211.4 76.9534 1209.79 75.5109C1208.22 74.0349 1206.09 73.2633 1203.4 73.1962C1200.62 73.0956 1198.2 73.6659 1196.16 74.9071C1194.11 76.1148 1192.4 77.7586 1191.02 79.8384C1189.65 81.8848 1188.56 84.1324 1187.75 86.5813C1186.98 88.9966 1186.45 91.3617 1186.14 93.6764L1185.94 95.7898C1185.74 97.9368 1185.81 100.101 1186.14 102.281C1186.48 104.462 1187.12 106.458 1188.06 108.269C1189.03 110.047 1190.37 111.506 1192.08 112.647C1193.79 113.754 1195.91 114.341 1198.42 114.408C1201.47 114.475 1204.21 113.821 1206.62 112.446C1209.07 111.037 1211.3 109.259 1213.32 107.112L1218.5 111.54C1216.92 113.855 1215.04 115.8 1212.86 117.377C1210.68 118.954 1208.3 120.128 1205.72 120.899C1203.13 121.671 1200.45 122.04 1197.67 122.006ZM1261.27 106.256C1261.57 104.176 1261.19 102.549 1260.11 101.375C1259.07 100.201 1257.7 99.3122 1255.99 98.7084C1254.31 98.071 1252.67 97.551 1251.06 97.1484C1249.04 96.6452 1247.01 96.0246 1244.97 95.2866C1242.92 94.5486 1241.04 93.6093 1239.33 92.4687C1237.65 91.2946 1236.31 89.8521 1235.31 88.1412C1234.33 86.3968 1233.9 84.2834 1234 81.8009C1234.13 79.1172 1234.84 76.7522 1236.11 74.7058C1237.42 72.6595 1239.1 70.9486 1241.14 69.5732C1243.22 68.1978 1245.49 67.1746 1247.94 66.5037C1250.38 65.8328 1252.82 65.5141 1255.23 65.5476C1258.65 65.6147 1261.76 66.3192 1264.54 67.6611C1267.36 69.0029 1269.59 70.9318 1271.23 73.4478C1272.88 75.9638 1273.65 79.0166 1273.55 82.606L1264.54 82.5557C1264.61 80.6436 1264.22 78.9998 1263.38 77.6244C1262.55 76.249 1261.39 75.1923 1259.91 74.4542C1258.44 73.6827 1256.76 73.2801 1254.88 73.2466C1253.1 73.213 1251.36 73.4982 1249.65 74.102C1247.94 74.6723 1246.48 75.578 1245.27 76.8193C1244.06 78.0269 1243.32 79.6036 1243.06 81.5493C1242.85 82.9918 1243.07 84.1827 1243.71 85.122C1244.35 86.0278 1245.22 86.7658 1246.33 87.3361C1247.47 87.8728 1248.66 88.3257 1249.9 88.6947C1251.17 89.0302 1252.33 89.3321 1253.37 89.6005C1256.12 90.372 1258.84 91.3449 1261.52 92.519C1264.21 93.6931 1266.39 95.3202 1268.06 97.4C1269.74 99.4464 1270.5 102.147 1270.33 105.502C1270.19 108.353 1269.44 110.835 1268.06 112.949C1266.72 115.029 1264.98 116.756 1262.83 118.132C1260.72 119.474 1258.39 120.463 1255.84 121.101C1253.29 121.738 1250.74 122.04 1248.19 122.006C1244.67 121.939 1241.38 121.218 1238.33 119.843C1235.31 118.434 1232.89 116.421 1231.08 113.804C1229.27 111.154 1228.41 107.934 1228.51 104.143L1237.62 104.193C1237.62 106.374 1238.07 108.219 1238.98 109.728C1239.92 111.204 1241.21 112.328 1242.85 113.1C1244.5 113.871 1246.38 114.274 1248.49 114.307C1250.27 114.341 1252.08 114.106 1253.92 113.603C1255.8 113.1 1257.41 112.261 1258.75 111.087C1260.13 109.879 1260.97 108.269 1261.27 106.256Z" fill="#8A8A8A"/>
<path d="M69.2609 154.522C107.513 154.522 138.522 123.513 138.522 85.2609C138.522 47.0092 107.513 16 69.2609 16C31.0092 16 0 47.0092 0 85.2609C0 123.513 31.0092 154.522 69.2609 154.522Z" fill="#0052B4"/>
<path d="M69 110C75.6304 110 81.9893 107.366 86.6777 102.678C91.3661 97.9893 94 91.6304 94 85C94 78.3696 91.3661 72.0107 86.6777 67.3223C81.9893 62.6339 75.6304 60 69 60C62.3696 60 56.0107 62.6339 51.3223 67.3223C46.6339 72.0107 44 78.3696 44 85C44 91.6304 46.6339 97.9893 51.3223 102.678C56.0107 107.366 62.3696 110 69 110ZM80.0352 80.4102L67.5352 92.9102C66.6172 93.8281 65.1328 93.8281 64.2246 92.9102L57.9746 86.6602C57.0566 85.7422 57.0566 84.2578 57.9746 83.3496C58.8926 82.4414 60.377 82.4316 61.2852 83.3496L65.875 87.9395L76.7148 77.0898C77.6328 76.1719 79.1172 76.1719 80.0254 77.0898C80.9336 78.0078 80.9434 79.4922 80.0254 80.4004L80.0352 80.4102Z" fill="white"/>
<path d="M69.1595 31L72.0232 39.8131H81.2893L73.7925 45.2598L76.6563 54.0729L69.1595 48.6259L61.6623 54.0729L64.5261 45.2598L57.0293 39.8131H66.2957L69.1595 31Z" fill="#FFDA44"/>
<path d="M31.0929 46.7695L39.3501 50.9762L45.9023 44.4243L44.4523 53.5764L52.7092 57.7834L43.5568 59.2331L42.1071 68.3858L37.9001 60.1289L28.748 61.5789L35.3003 55.0267L31.0929 46.7695Z" fill="#FFDA44"/>
<path d="M15.3223 84.8367L24.1354 81.9729V72.7065L29.5817 80.2037L38.3951 77.3399L32.9478 84.8367L38.3951 92.3335L29.5817 89.4701L24.1354 96.9669V87.7005L15.3223 84.8367Z" fill="#FFDA44"/>
<path d="M31.0929 122.904L35.2999 114.647L28.748 108.095L37.9004 109.545L42.1068 101.288L43.5568 110.44L52.7088 111.89L44.453 116.097L45.9023 125.249L39.3501 118.697L31.0929 122.904Z" fill="#FFDA44"/>
<path d="M69.1595 138.672L66.2953 129.859H57.0293L64.5264 124.413L61.6623 115.6L69.1595 121.046L76.6563 115.6L73.7925 124.413L81.2893 129.859H72.0229L69.1595 138.672Z" fill="#FFDA44"/>
<path d="M107.227 122.904L98.97 118.697L92.4175 125.25L93.8675 116.097L85.6113 111.89L94.7634 110.44L96.213 101.288L100.42 109.545L109.572 108.095L103.02 114.648L107.227 122.904Z" fill="#FFDA44"/>
<path d="M123 84.8367L114.187 87.7005V96.9669L108.74 89.4697L99.9277 92.3335L105.374 84.8367L99.9277 77.3399L108.74 80.2037L114.187 72.7065V81.9733L123 84.8367Z" fill="#FFDA44"/>
<path d="M107.227 46.7692L103.02 55.0264L109.572 61.5786L100.419 60.1282L96.213 68.3851L94.7634 59.2327L85.6113 57.7827L93.8675 53.576L92.4175 44.4243L98.9704 50.9762L107.227 46.7692Z" fill="#FFDA44"/>
</svg>
