<svg viewBox="0 0 375 69" fill="none" xmlns="http://www.w3.org/2000/svg">
<rect width="375" height="69" fill="white"/>
<path d="M119.223 41.2683L127.472 22.2361H133.663L121.553 47H117.488L119.223 41.2683ZM117.301 22.2361L119.648 41.7615L119.631 47H115.77L111.45 22.2361H117.301ZM131.316 38.0877L131.35 37.7306C131.497 36.4153 131.82 35.1793 132.319 34.0228C132.818 32.8662 133.482 31.8514 134.309 30.9783C135.137 30.1052 136.112 29.4249 137.235 28.9373C138.357 28.4498 139.616 28.223 141.011 28.257C142.349 28.2797 143.505 28.5462 144.48 29.0564C145.467 29.5553 146.272 30.2356 146.895 31.0974C147.519 31.9591 147.961 32.9456 148.222 34.0568C148.483 35.168 148.557 36.3472 148.443 37.5945L148.409 37.9687C148.262 39.2726 147.933 40.4972 147.423 41.6424C146.912 42.7876 146.243 43.7911 145.416 44.6529C144.588 45.5146 143.613 46.1893 142.49 46.6768C141.368 47.1531 140.115 47.3742 138.731 47.3402C137.405 47.3175 136.248 47.0567 135.262 46.5578C134.287 46.0589 133.487 45.3842 132.864 44.5338C132.24 43.6834 131.798 42.7083 131.537 41.6084C131.276 40.5086 131.203 39.335 131.316 38.0877ZM136.537 37.7306L136.503 38.0877C136.469 38.598 136.452 39.1479 136.452 39.7375C136.464 40.3158 136.543 40.8714 136.69 41.4043C136.849 41.9372 137.11 42.3738 137.473 42.7139C137.847 43.0428 138.369 43.2185 139.038 43.2412C139.763 43.2639 140.376 43.1165 140.874 42.799C141.373 42.4815 141.782 42.0563 142.099 41.5234C142.428 40.9791 142.677 40.3952 142.847 39.7715C143.029 39.1479 143.148 38.5413 143.205 37.9517L143.239 37.5945C143.284 37.0956 143.301 36.5513 143.29 35.9617C143.29 35.3608 143.21 34.7938 143.052 34.2609C142.904 33.7166 142.643 33.2744 142.269 32.9343C141.895 32.5828 141.373 32.3957 140.704 32.373C139.979 32.3503 139.361 32.5034 138.851 32.8322C138.352 33.161 137.943 33.5976 137.626 34.1418C137.308 34.6861 137.065 35.2757 136.895 35.9107C136.725 36.5343 136.605 37.1409 136.537 37.7306ZM161.795 28.5972L161.131 32.322H150.535L151.181 28.5972H161.795ZM154.396 24.039H159.583L156.624 41.2683C156.579 41.6651 156.579 41.9939 156.624 42.2547C156.681 42.5155 156.805 42.7196 156.998 42.867C157.202 43.0031 157.514 43.0825 157.934 43.1051C158.183 43.1165 158.427 43.1108 158.665 43.0881C158.903 43.0541 159.141 43.0258 159.379 43.0031L159.005 46.898C158.54 47.0454 158.064 47.1531 157.577 47.2211C157.1 47.2891 156.613 47.3232 156.114 47.3232C154.991 47.3005 154.061 47.068 153.324 46.6258C152.587 46.1723 152.055 45.5373 151.726 44.7209C151.408 43.8932 151.3 42.9294 151.403 41.8295L154.396 24.039ZM169.907 47.3402C168.637 47.3175 167.487 47.0794 166.455 46.6258C165.434 46.1723 164.573 45.5486 163.87 44.7549C163.167 43.9499 162.651 43.0144 162.322 41.9486C161.993 40.8827 161.874 39.7205 161.965 38.4619L162.033 37.7986C162.169 36.4833 162.481 35.2474 162.968 34.0908C163.467 32.9343 164.13 31.9138 164.958 31.0293C165.786 30.1336 166.761 29.4419 167.883 28.9544C169.017 28.4554 170.282 28.223 171.676 28.257C172.958 28.2797 174.057 28.5405 174.976 29.0394C175.906 29.527 176.654 30.1903 177.221 31.0293C177.799 31.8684 178.196 32.8209 178.411 33.8867C178.627 34.9526 178.672 36.0808 178.548 37.2713L178.241 39.4484H163.835L164.38 36.0297L173.581 36.0468L173.683 35.5875C173.763 35.0093 173.734 34.482 173.598 34.0058C173.462 33.5182 173.207 33.127 172.833 32.8322C172.459 32.5374 171.954 32.3787 171.319 32.356C170.582 32.3446 169.964 32.5034 169.465 32.8322C168.966 33.161 168.564 33.6032 168.258 34.1588C167.951 34.7031 167.713 35.2984 167.543 35.9447C167.385 36.5797 167.265 37.1976 167.186 37.7986L167.118 38.4449C167.073 39.0345 167.09 39.6071 167.169 40.1627C167.26 40.7183 167.43 41.2229 167.679 41.6764C167.94 42.1187 168.292 42.4815 168.734 42.765C169.187 43.0371 169.749 43.1845 170.418 43.2072C171.291 43.2299 172.101 43.0598 172.85 42.6969C173.61 42.3341 174.29 41.8465 174.891 41.2342L177.136 44.0746C176.614 44.8456 175.957 45.4749 175.163 45.9625C174.369 46.4387 173.513 46.7902 172.595 47.017C171.688 47.2438 170.792 47.3515 169.907 47.3402Z" fill="#3E3E3E"/>
<path d="M189.331 22.2361L185.028 47H179.636L183.922 22.2361H189.331ZM196.984 32.6791L196.236 36.9652H185.249L185.997 32.6791H196.984ZM199.842 22.2361L199.093 26.5392H187.052L187.817 22.2361H199.842ZM206.526 28.5972L203.345 47H198.141L201.338 28.5972H206.526ZM201.849 23.9199C201.826 23.0922 202.098 22.4346 202.665 21.947C203.243 21.4481 203.929 21.193 204.723 21.1816C205.483 21.1703 206.152 21.3971 206.73 21.862C207.308 22.3155 207.603 22.9391 207.614 23.7329C207.626 24.5606 207.342 25.2239 206.764 25.7228C206.197 26.2104 205.522 26.4598 204.74 26.4712C203.98 26.4825 203.311 26.2614 202.733 25.8078C202.166 25.3543 201.871 24.725 201.849 23.9199ZM214.537 32.8152L212.054 47H206.866L210.064 28.5972H214.911L214.537 32.8152ZM213.125 37.1523L211.952 37.2033C212.065 36.1034 212.303 35.0149 212.666 33.9377C213.029 32.8606 213.528 31.8911 214.163 31.0293C214.809 30.1563 215.603 29.4703 216.544 28.9714C217.485 28.4611 218.59 28.2173 219.86 28.24C220.881 28.274 221.72 28.4951 222.378 28.9033C223.047 29.3002 223.557 29.8331 223.908 30.5021C224.271 31.1597 224.504 31.9081 224.606 32.7472C224.708 33.5749 224.708 34.4366 224.606 35.3324L222.667 47H217.445L219.418 35.2814C219.475 34.7258 219.458 34.2269 219.367 33.7847C219.276 33.3425 219.067 33.0023 218.738 32.7642C218.42 32.5147 217.944 32.3787 217.309 32.356C216.629 32.3446 216.045 32.4807 215.557 32.7642C215.07 33.0363 214.662 33.4105 214.333 33.8867C214.004 34.3516 213.743 34.8732 213.55 35.4515C213.369 36.0184 213.227 36.5853 213.125 37.1523ZM237.158 42.5779L240.933 20.8755H246.155L241.614 47H236.954L237.158 42.5779ZM226.851 38.1558L226.885 37.7816C227.021 36.659 227.276 35.5252 227.65 34.38C228.036 33.2347 228.557 32.1916 229.215 31.2505C229.872 30.3093 230.683 29.561 231.647 29.0054C232.622 28.4498 233.779 28.1947 235.117 28.24C236.262 28.2854 237.197 28.6199 237.923 29.2435C238.66 29.8558 239.233 30.6382 239.641 31.5906C240.049 32.5317 240.327 33.5352 240.474 34.6011C240.633 35.6556 240.695 36.642 240.661 37.5605L240.593 38.2068C240.412 39.1819 240.111 40.2137 239.692 41.3023C239.284 42.3795 238.745 43.3829 238.076 44.3127C237.407 45.2425 236.613 45.9908 235.695 46.5578C234.776 47.1247 233.733 47.3912 232.565 47.3572C231.33 47.3232 230.315 47.0227 229.521 46.4557C228.727 45.8888 228.115 45.1518 227.684 44.2447C227.265 43.3262 226.992 42.3398 226.868 41.2853C226.754 40.2194 226.749 39.1763 226.851 38.1558ZM232.089 37.7646L232.055 38.1217C232.01 38.5753 231.981 39.0855 231.97 39.6525C231.959 40.2194 232.004 40.7693 232.106 41.3023C232.22 41.8352 232.435 42.2831 232.753 42.6459C233.081 43.0088 233.558 43.2072 234.181 43.2412C235.043 43.2639 235.763 43.0598 236.341 42.6289C236.92 42.198 237.373 41.6424 237.702 40.9621C238.042 40.2704 238.263 39.5561 238.365 38.8191L238.603 37.0162C238.66 36.5286 238.671 36.0184 238.637 35.4855C238.615 34.9526 238.524 34.4593 238.365 34.0058C238.206 33.5409 237.946 33.1554 237.583 32.8492C237.231 32.5431 236.738 32.3843 236.103 32.373C235.4 32.3503 234.805 32.5091 234.317 32.8492C233.83 33.1894 233.433 33.6373 233.127 34.1929C232.832 34.7485 232.605 35.3437 232.446 35.9787C232.288 36.6024 232.169 37.1976 232.089 37.7646ZM253.894 47.3402C252.624 47.3175 251.473 47.0794 250.441 46.6258C249.421 46.1723 248.559 45.5486 247.856 44.7549C247.153 43.9499 246.637 43.0144 246.308 41.9486C245.979 40.8827 245.86 39.7205 245.951 38.4619L246.019 37.7986C246.155 36.4833 246.467 35.2474 246.954 34.0908C247.453 32.9343 248.117 31.9138 248.944 31.0293C249.772 30.1336 250.747 29.4419 251.87 28.9544C253.004 28.4554 254.268 28.223 255.663 28.257C256.944 28.2797 258.044 28.5405 258.962 29.0394C259.892 29.527 260.64 30.1903 261.207 31.0293C261.785 31.8684 262.182 32.8209 262.398 33.8867C262.613 34.9526 262.659 36.0808 262.534 37.2713L262.228 39.4484H247.822L248.366 36.0297L257.567 36.0468L257.669 35.5875C257.749 35.0093 257.72 34.482 257.584 34.0058C257.448 33.5182 257.193 33.127 256.819 32.8322C256.445 32.5374 255.94 32.3787 255.305 32.356C254.568 32.3446 253.95 32.5034 253.451 32.8322C252.953 33.161 252.55 33.6032 252.244 34.1588C251.938 34.7031 251.7 35.2984 251.53 35.9447C251.371 36.5797 251.252 37.1976 251.172 37.7986L251.104 38.4449C251.059 39.0345 251.076 39.6071 251.155 40.1627C251.246 40.7183 251.416 41.2229 251.666 41.6764C251.926 42.1187 252.278 42.4815 252.72 42.765C253.174 43.0371 253.735 43.1845 254.404 43.2072C255.277 43.2299 256.088 43.0598 256.836 42.6969C257.596 42.3341 258.276 41.8465 258.877 41.2342L261.122 44.0746C260.601 44.8456 259.943 45.4749 259.149 45.9625C258.355 46.4387 257.499 46.7902 256.581 47.017C255.674 47.2438 254.778 47.3515 253.894 47.3402ZM270.953 33.1724L268.555 47H263.367L266.565 28.5972H271.412L270.953 33.1724ZM276.957 28.4441L276.31 33.3935C276.016 33.3481 275.726 33.3084 275.443 33.2744C275.16 33.2404 274.87 33.2234 274.576 33.2234C273.929 33.2121 273.345 33.2914 272.824 33.4615C272.313 33.6203 271.866 33.864 271.48 34.1929C271.106 34.5217 270.794 34.9299 270.545 35.4174C270.295 35.8937 270.108 36.4379 269.983 37.0502L269.031 36.574C269.156 35.7009 269.348 34.7825 269.609 33.8187C269.87 32.8435 270.233 31.9308 270.698 31.0804C271.174 30.2186 271.781 29.527 272.518 29.0054C273.266 28.4725 274.184 28.206 275.273 28.206C275.556 28.206 275.834 28.2287 276.106 28.274C276.39 28.3194 276.673 28.3761 276.957 28.4441Z" fill="#0052B4"/>
<path d="M276.906 45.3842C276.906 44.8286 277.081 44.3637 277.433 43.9896C277.796 43.6154 278.255 43.4226 278.811 43.4113C279.366 43.3999 279.82 43.57 280.171 43.9215C280.534 44.273 280.71 44.7266 280.698 45.2822C280.698 45.8378 280.517 46.297 280.154 46.6598C279.803 47.0227 279.349 47.2098 278.794 47.2211C278.249 47.2324 277.796 47.068 277.433 46.7279C277.07 46.3877 276.894 45.9398 276.906 45.3842ZM293.251 47.3402C291.992 47.3175 290.898 47.068 289.968 46.5918C289.05 46.1042 288.295 45.4523 287.706 44.6359C287.128 43.8081 286.714 42.867 286.464 41.8125C286.215 40.758 286.141 39.6525 286.243 38.4959L286.311 37.7646C286.425 36.5853 286.714 35.4288 287.179 34.2949C287.644 33.1497 288.261 32.1179 289.033 31.1994C289.815 30.281 290.733 29.5553 291.788 29.0224C292.854 28.4781 294.033 28.223 295.326 28.257C296.607 28.2797 297.673 28.5518 298.523 29.0734C299.373 29.595 300.037 30.2867 300.513 31.1484C301.001 31.9988 301.318 32.9569 301.465 34.0228C301.613 35.0773 301.624 36.1601 301.499 37.2713L301.312 38.683H287.961L288.369 36.1148L298.557 36.1318L298.608 35.8597C298.721 35.0433 298.676 34.2552 298.472 33.4955C298.268 32.7358 297.894 32.1122 297.349 31.6246C296.817 31.1257 296.097 30.8649 295.189 30.8423C294.248 30.8082 293.432 31.001 292.74 31.4205C292.049 31.8287 291.47 32.3843 291.005 33.0873C290.541 33.779 290.172 34.5387 289.9 35.3664C289.639 36.1828 289.458 36.9822 289.356 37.7646L289.288 38.4789C289.22 39.2046 289.242 39.9359 289.356 40.673C289.469 41.41 289.684 42.0846 290.002 42.6969C290.331 43.2979 290.784 43.7911 291.363 44.1766C291.941 44.5508 292.655 44.7493 293.506 44.7719C294.537 44.7946 295.462 44.5735 296.278 44.1086C297.106 43.6324 297.86 43.0314 298.54 42.3058L300.292 43.8025C299.759 44.5848 299.124 45.2425 298.387 45.7754C297.65 46.3083 296.845 46.7052 295.972 46.966C295.099 47.2268 294.192 47.3515 293.251 47.3402ZM315.089 42.5779L317.504 28.5972H320.6L317.402 47H314.46L315.089 42.5779ZM316.246 38.8701L317.504 38.8191C317.357 39.9756 317.096 41.0755 316.722 42.1187C316.348 43.1505 315.837 44.0689 315.191 44.874C314.556 45.6677 313.762 46.2913 312.81 46.7449C311.869 47.1871 310.752 47.3912 309.459 47.3572C308.45 47.3232 307.605 47.1191 306.925 46.7449C306.256 46.3707 305.729 45.8661 305.343 45.2312C304.958 44.5962 304.703 43.8705 304.578 43.0541C304.453 42.2377 304.436 41.376 304.527 40.4689L306.517 28.5972H309.595L307.605 40.5199C307.56 41.0188 307.554 41.512 307.588 41.9996C307.622 42.4758 307.724 42.9124 307.895 43.3092C308.065 43.7061 308.325 44.0292 308.677 44.2787C309.04 44.5168 309.516 44.6472 310.106 44.6699C311.33 44.7152 312.368 44.4885 313.218 43.9896C314.068 43.4793 314.743 42.7763 315.242 41.8805C315.741 40.9848 316.075 39.9813 316.246 38.8701Z" fill="#8C8C8C"/>
<path d="M75.4103 58.2288C88.3394 58.2288 98.8206 47.7476 98.8206 34.8185C98.8206 21.8893 88.3394 11.4082 75.4103 11.4082C62.4811 11.4082 52 21.8893 52 34.8185C52 47.7476 62.4811 58.2288 75.4103 58.2288Z" fill="#0052B4"/>
<path d="M75.3192 43.1799C77.5603 43.1799 79.7096 42.2896 81.2943 40.7049C82.8789 39.1202 83.7692 36.9709 83.7692 34.7298C83.7692 32.4887 82.8789 30.3394 81.2943 28.7547C79.7096 27.1701 77.5603 26.2798 75.3192 26.2798C73.0781 26.2798 70.9288 27.1701 69.3441 28.7547C67.7594 30.3394 66.8691 32.4887 66.8691 34.7298C66.8691 36.9709 67.7594 39.1202 69.3441 40.7049C70.9288 42.2896 73.0781 43.1799 75.3192 43.1799ZM79.0491 33.1784L74.8241 37.4035C74.5138 37.7137 74.0121 37.7137 73.7051 37.4035L71.5926 35.291C71.2823 34.9807 71.2823 34.479 71.5926 34.172C71.9029 33.865 72.4046 33.8617 72.7115 34.172L74.2629 35.7234L77.9268 32.0562C78.2371 31.7459 78.7388 31.7459 79.0458 32.0562C79.3527 32.3665 79.3561 32.8682 79.0458 33.1751L79.0491 33.1784Z" fill="white"/>
<path d="M75.3774 16.4785L76.3453 19.4574H79.4772L76.9433 21.2983L77.9113 24.2772L75.3774 22.4361L72.8433 24.2772L73.8113 21.2983L71.2773 19.4574H74.4094L75.3774 16.4785Z" fill="#FFDA44"/>
<path d="M62.5133 21.8088L65.3042 23.2307L67.5189 21.0161L67.0288 24.1095L69.8196 25.5315L66.7261 26.0215L66.2361 29.1151L64.8141 26.3243L61.7207 26.8144L63.9354 24.5997L62.5133 21.8088Z" fill="#FFDA44"/>
<path d="M57.1816 34.6757L60.1605 33.7077V30.5757L62.0013 33.1097L64.9803 32.1418L63.1391 34.6757L64.9803 37.2096L62.0013 36.2418L60.1605 38.7757V35.6437L57.1816 34.6757Z" fill="#FFDA44"/>
<path d="M62.5133 47.5421L63.9352 44.7511L61.7207 42.5364L64.8142 43.0267L66.236 40.2358L66.7261 43.3294L69.8195 43.8194L67.029 45.2413L67.5189 48.3347L65.3042 46.1201L62.5133 47.5421Z" fill="#FFDA44"/>
<path d="M75.3774 52.8717L74.4093 49.8928H71.2773L73.8114 48.0519L72.8433 45.0732L75.3774 46.9141L77.9113 45.0732L76.9433 48.0519L79.4772 49.8928H76.3452L75.3774 52.8717Z" fill="#FFDA44"/>
<path d="M88.2456 47.5421L85.4547 46.1202L83.2399 48.3349L83.7301 45.2412L80.9395 43.8194L84.0329 43.3294L84.5228 40.2358L85.9447 43.0267L89.0381 42.5364L86.8235 44.7513L88.2456 47.5421Z" fill="#FFDA44"/>
<path d="M93.5758 34.6757L90.5969 35.6437V38.7757L88.756 36.2417L85.7773 37.2096L87.6183 34.6757L85.7773 32.1418L88.7561 33.1097L90.5969 30.5757V33.7079L93.5758 34.6757Z" fill="#FFDA44"/>
<path d="M88.2456 21.8087L86.8236 24.5996L89.0382 26.8143L85.9446 26.3241L84.5228 29.1149L84.0329 26.0214L80.9395 25.5313L83.7301 24.1094L83.2399 21.0161L85.4548 23.2307L88.2456 21.8087Z" fill="#FFDA44"/>
</svg>
