<svg viewBox="0 0 797 171" fill="none" xmlns="http://www.w3.org/2000/svg">
<path d="M198.294 104.042L222.699 47.7344H241.016L205.188 121H193.161L198.294 104.042ZM192.608 47.7344L199.552 105.502L199.502 121H188.079L175.298 47.7344H192.608ZM234.071 94.6325L234.172 93.5757C234.608 89.6843 235.564 86.0278 237.04 82.606C238.516 79.1843 240.479 76.1819 242.928 73.5988C245.377 71.0157 248.262 69.0029 251.583 67.5604C254.904 66.1179 258.627 65.447 262.754 65.5476C266.712 65.6147 270.134 66.4031 273.019 67.9127C275.937 69.3887 278.319 71.4015 280.164 73.951C282.009 76.5006 283.318 79.4191 284.089 82.7067C284.861 85.9942 285.079 89.4831 284.743 93.1732L284.643 94.2802C284.207 98.1381 283.234 101.761 281.724 105.149C280.215 108.537 278.235 111.506 275.786 114.056C273.338 116.605 270.453 118.601 267.131 120.044C263.81 121.453 260.103 122.107 256.011 122.006C252.086 121.939 248.664 121.168 245.746 119.692C242.861 118.216 240.496 116.22 238.651 113.704C236.805 111.188 235.497 108.303 234.726 105.049C233.954 101.795 233.736 98.3226 234.071 94.6325ZM249.52 93.5757L249.419 94.6325C249.318 96.142 249.268 97.769 249.268 99.5135C249.302 101.224 249.536 102.868 249.972 104.445C250.442 106.021 251.214 107.313 252.287 108.319C253.394 109.292 254.937 109.812 256.917 109.879C259.064 109.946 260.875 109.51 262.351 108.571C263.827 107.632 265.035 106.374 265.974 104.797C266.947 103.187 267.685 101.459 268.188 99.6141C268.725 97.769 269.077 95.9743 269.245 94.2299L269.346 93.1732C269.48 91.6971 269.53 90.0869 269.497 88.3425C269.497 86.5645 269.262 84.8872 268.792 83.3105C268.356 81.7003 267.584 80.392 266.477 79.3856C265.37 78.3456 263.827 77.7921 261.848 77.725C259.701 77.6579 257.873 78.1108 256.363 79.0836C254.887 80.0565 253.679 81.348 252.74 82.9583C251.801 84.5685 251.079 86.3129 250.576 88.1915C250.073 90.0366 249.721 91.8313 249.52 93.5757ZM324.244 66.554L322.282 77.5741H290.933L292.845 66.554H324.244ZM302.355 53.0683H317.703L308.947 104.042C308.813 105.216 308.813 106.189 308.947 106.961C309.115 107.732 309.484 108.336 310.054 108.772C310.658 109.175 311.581 109.41 312.822 109.477C313.56 109.51 314.281 109.494 314.986 109.426C315.69 109.326 316.395 109.242 317.099 109.175L315.992 120.698C314.617 121.134 313.208 121.453 311.765 121.654C310.356 121.855 308.914 121.956 307.438 121.956C304.116 121.889 301.366 121.201 299.185 119.893C297.005 118.551 295.428 116.673 294.455 114.257C293.516 111.808 293.197 108.957 293.499 105.703L302.355 53.0683ZM348.247 122.006C344.49 121.939 341.085 121.235 338.032 119.893C335.013 118.551 332.463 116.706 330.383 114.358C328.304 111.976 326.777 109.208 325.804 106.055C324.831 102.902 324.479 99.4631 324.748 95.7395L324.949 93.777C325.351 89.8856 326.274 86.2291 327.716 82.8073C329.193 79.3856 331.155 76.3664 333.604 73.7498C336.053 71.0996 338.938 69.0532 342.259 67.6107C345.614 66.1347 349.354 65.447 353.48 65.5476C357.271 65.6147 360.525 66.3863 363.242 67.8623C365.993 69.3048 368.207 71.2673 369.884 73.7498C371.595 76.2322 372.769 79.0501 373.407 82.2035C374.044 85.3568 374.178 88.6947 373.809 92.2171L372.904 98.658H330.283L331.893 88.5438L359.116 88.5941L359.418 87.2354C359.653 85.5246 359.569 83.9647 359.166 82.5557C358.764 81.1132 358.009 79.9559 356.902 79.0836C355.795 78.2114 354.302 77.7418 352.423 77.6747C350.243 77.6411 348.415 78.1108 346.939 79.0836C345.463 80.0565 344.272 81.3648 343.366 83.0086C342.46 84.6188 341.756 86.38 341.252 88.2922C340.783 90.1708 340.431 91.9991 340.196 93.777L339.994 95.6892C339.86 97.4336 339.911 99.1277 340.145 100.771C340.414 102.415 340.917 103.908 341.655 105.25C342.427 106.558 343.467 107.632 344.775 108.47C346.117 109.275 347.777 109.712 349.757 109.779C352.34 109.846 354.738 109.343 356.952 108.269C359.2 107.196 361.213 105.753 362.991 103.942L369.633 112.345C368.09 114.626 366.144 116.488 363.796 117.93C361.447 119.339 358.915 120.379 356.197 121.05C353.514 121.721 350.864 122.04 348.247 122.006Z" fill="#3E3E3E"/>
<path d="M405.712 47.7344L392.981 121H377.03L389.71 47.7344H405.712ZM428.356 78.6308L426.142 91.3113H393.635L395.849 78.6308H428.356ZM436.81 47.7344L434.596 60.4653H398.969L401.234 47.7344H436.81ZM456.585 66.554L447.176 121H431.778L441.238 66.554H456.585ZM442.747 52.7161C442.68 50.2672 443.485 48.3215 445.163 46.879C446.874 45.403 448.903 44.6482 451.251 44.6146C453.499 44.5811 455.478 45.252 457.189 46.6274C458.9 47.9693 459.772 49.8143 459.806 52.1626C459.839 54.6115 459.001 56.5739 457.29 58.05C455.612 59.4925 453.616 60.2305 451.302 60.2641C449.054 60.2976 447.075 59.6435 445.364 58.3016C443.687 56.9597 442.814 55.0979 442.747 52.7161ZM480.286 79.0333L472.939 121H457.592L467.052 66.554H481.393L480.286 79.0333ZM476.109 91.8649L472.637 92.0158C472.973 88.7618 473.677 85.5413 474.751 82.3544C475.824 79.1675 477.3 76.2993 479.179 73.7498C481.091 71.1667 483.439 69.1371 486.224 67.6611C489.008 66.1515 492.279 65.4302 496.036 65.4973C499.055 65.598 501.538 66.2521 503.483 67.4598C505.463 68.6339 506.972 70.2106 508.012 72.1898C509.086 74.1355 509.773 76.3496 510.075 78.832C510.377 81.2809 510.377 83.8305 510.075 86.4807L504.339 121H488.891L494.728 86.3297C494.895 84.6859 494.845 83.2099 494.577 81.9016C494.308 80.5932 493.688 79.5868 492.715 78.8824C491.776 78.1443 490.367 77.7418 488.488 77.6747C486.475 77.6411 484.748 78.0437 483.305 78.8824C481.863 79.6875 480.655 80.7945 479.682 82.2035C478.709 83.5789 477.938 85.122 477.367 86.8329C476.831 88.5102 476.411 90.1875 476.109 91.8649ZM547.211 107.917L558.382 43.7089H573.83L560.395 121H546.607L547.211 107.917ZM516.717 94.8337L516.818 93.7267C517.221 90.4056 517.975 87.0509 519.082 83.6627C520.223 80.2745 521.766 77.1883 523.712 74.4039C525.658 71.6196 528.056 69.4055 530.908 67.7617C533.793 66.1179 537.214 65.3631 541.173 65.4973C544.561 65.6315 547.329 66.6211 549.476 68.4662C551.656 70.2777 553.35 72.5924 554.558 75.4103C555.766 78.1947 556.587 81.1635 557.024 84.3169C557.493 87.4367 557.678 90.3553 557.577 93.0725L557.376 94.9847C556.839 97.8697 555.95 100.922 554.709 104.143C553.501 107.33 551.908 110.299 549.928 113.049C547.949 115.8 545.601 118.014 542.884 119.692C540.166 121.369 537.08 122.157 533.625 122.057C529.968 121.956 526.966 121.067 524.618 119.39C522.269 117.712 520.458 115.532 519.183 112.848C517.942 110.131 517.137 107.212 516.768 104.093C516.432 100.939 516.416 97.8529 516.717 94.8337ZM532.216 93.6764L532.115 94.7331C531.981 96.075 531.897 97.5845 531.864 99.2619C531.83 100.939 531.964 102.566 532.266 104.143C532.602 105.72 533.239 107.045 534.178 108.118C535.151 109.192 536.56 109.779 538.405 109.879C540.955 109.946 543.085 109.343 544.796 108.068C546.507 106.793 547.849 105.149 548.821 103.136C549.828 101.09 550.482 98.9767 550.784 96.7962L551.488 91.4623C551.656 90.0198 551.69 88.5102 551.589 86.9335C551.522 85.3568 551.254 83.8976 550.784 82.5557C550.314 81.1803 549.543 80.0397 548.469 79.134C547.429 78.2282 545.97 77.7586 544.091 77.725C542.012 77.6579 540.25 78.1276 538.808 79.134C537.365 80.1404 536.191 81.4654 535.285 83.1092C534.413 84.753 533.742 86.5142 533.273 88.3928C532.803 90.2379 532.451 91.9991 532.216 93.6764ZM596.726 122.006C592.969 121.939 589.564 121.235 586.511 119.893C583.492 118.551 580.942 116.706 578.862 114.358C576.782 111.976 575.256 109.208 574.283 106.055C573.31 102.902 572.958 99.4631 573.227 95.7395L573.428 93.777C573.83 89.8856 574.753 86.2291 576.195 82.8073C577.671 79.3856 579.634 76.3664 582.083 73.7498C584.532 71.0996 587.417 69.0532 590.738 67.6107C594.092 66.1347 597.833 65.447 601.959 65.5476C605.75 65.6147 609.004 66.3863 611.721 67.8623C614.472 69.3048 616.686 71.2673 618.363 73.7498C620.074 76.2322 621.248 79.0501 621.886 82.2035C622.523 85.3568 622.657 88.6947 622.288 92.2171L621.383 98.658H578.762L580.372 88.5438L607.595 88.5941L607.897 87.2354C608.132 85.5246 608.048 83.9647 607.645 82.5557C607.243 81.1132 606.488 79.9559 605.381 79.0836C604.274 78.2114 602.781 77.7418 600.902 77.6747C598.722 77.6411 596.894 78.1108 595.418 79.0836C593.941 80.0565 592.751 81.3648 591.845 83.0086C590.939 84.6188 590.235 86.38 589.731 88.2922C589.262 90.1708 588.91 91.9991 588.675 93.777L588.473 95.6892C588.339 97.4336 588.39 99.1277 588.624 100.771C588.893 102.415 589.396 103.908 590.134 105.25C590.906 106.558 591.945 107.632 593.254 108.47C594.596 109.275 596.256 109.712 598.235 109.779C600.819 109.846 603.217 109.343 605.431 108.269C607.679 107.196 609.692 105.753 611.47 103.942L618.112 112.345C616.569 114.626 614.623 116.488 612.275 117.93C609.926 119.339 607.394 120.379 604.676 121.05C601.993 121.721 599.342 122.04 596.726 122.006ZM647.197 80.09L640.101 121H624.754L634.214 66.554H648.555L647.197 80.09ZM664.959 66.1012L663.047 80.7442C662.175 80.61 661.32 80.4926 660.481 80.392C659.642 80.2913 658.787 80.241 657.915 80.241C656.003 80.2075 654.275 80.4423 652.732 80.9455C651.222 81.4151 649.897 82.1364 648.756 83.1092C647.649 84.0821 646.727 85.2898 645.989 86.7323C645.251 88.1412 644.697 89.7514 644.328 91.5629L641.51 90.154C641.879 87.5709 642.45 84.8536 643.221 82.0022C643.993 79.1172 645.066 76.4167 646.442 73.9007C647.851 71.3512 649.645 69.3048 651.826 67.7617C654.04 66.185 656.757 65.3967 659.978 65.3967C660.816 65.3967 661.638 65.4638 662.443 65.598C663.282 65.7321 664.121 65.8999 664.959 66.1012Z" fill="#0052B4"/>
<path d="M664.808 116.22C664.808 114.576 665.328 113.2 666.368 112.093C667.442 110.986 668.8 110.416 670.444 110.383C672.088 110.349 673.43 110.852 674.47 111.892C675.543 112.932 676.063 114.274 676.03 115.918C676.03 117.561 675.493 118.92 674.42 119.994C673.38 121.067 672.038 121.621 670.394 121.654C668.784 121.688 667.442 121.201 666.368 120.195C665.295 119.188 664.775 117.863 664.808 116.22ZM713.166 122.006C709.442 121.939 706.205 121.201 703.454 119.792C700.737 118.35 698.506 116.421 696.761 114.006C695.051 111.557 693.826 108.772 693.088 105.652C692.35 102.533 692.132 99.2619 692.434 95.8401L692.635 93.6764C692.971 90.1875 693.826 86.7658 695.202 83.4111C696.577 80.023 698.405 76.9702 700.686 74.253C703.001 71.5357 705.718 69.3887 708.838 67.812C711.992 66.2018 715.48 65.447 719.305 65.5476C723.095 65.6147 726.249 66.4198 728.765 67.963C731.281 69.5061 733.243 71.5525 734.652 74.102C736.095 76.618 737.034 79.4527 737.47 82.606C737.906 85.7259 737.94 88.9295 737.571 92.2171L737.017 96.3936H697.516L698.724 88.7954L728.865 88.8457L729.016 88.0406C729.352 85.6252 729.218 83.2937 728.614 81.0461C728.01 78.7985 726.903 76.9534 725.293 75.5109C723.716 74.0349 721.586 73.2633 718.902 73.1962C716.118 73.0956 713.702 73.6659 711.656 74.9071C709.61 76.1148 707.899 77.7586 706.524 79.8384C705.148 81.8848 704.058 84.1324 703.253 86.5813C702.481 88.9966 701.944 91.3617 701.642 93.6764L701.441 95.7898C701.24 97.9368 701.307 100.101 701.642 102.281C701.978 104.462 702.615 106.458 703.555 108.269C704.527 110.047 705.869 111.506 707.58 112.647C709.291 113.754 711.405 114.341 713.921 114.408C716.973 114.475 719.707 113.821 722.123 112.446C724.572 111.037 726.802 109.259 728.815 107.112L733.998 111.54C732.421 113.855 730.543 115.8 728.362 117.377C726.182 118.954 723.8 120.128 721.217 120.899C718.634 121.671 715.95 122.04 713.166 122.006ZM777.776 107.917L784.922 66.554H794.08L784.62 121H775.915L777.776 107.917ZM781.198 96.9472L784.922 96.7962C784.486 100.218 783.714 103.472 782.607 106.558C781.5 109.611 779.99 112.328 778.078 114.71C776.2 117.058 773.851 118.903 771.034 120.245C768.249 121.554 764.945 122.157 761.121 122.057C758.135 121.956 755.636 121.352 753.623 120.245C751.644 119.138 750.084 117.645 748.943 115.767C747.803 113.888 747.048 111.741 746.679 109.326C746.31 106.91 746.259 104.361 746.528 101.677L752.415 66.554H761.523L755.636 101.828C755.501 103.304 755.485 104.763 755.585 106.206C755.686 107.615 755.988 108.906 756.491 110.081C756.994 111.255 757.766 112.211 758.806 112.949C759.879 113.653 761.288 114.039 763.033 114.106C766.656 114.24 769.725 113.569 772.241 112.093C774.757 110.584 776.753 108.504 778.229 105.854C779.705 103.204 780.695 100.235 781.198 96.9472Z" fill="#8C8C8C"/>
<path d="M69.2609 154.522C107.513 154.522 138.522 123.513 138.522 85.2609C138.522 47.0092 107.513 16 69.2609 16C31.0092 16 0 47.0092 0 85.2609C0 123.513 31.0092 154.522 69.2609 154.522Z" fill="#0052B4"/>
<path d="M69 110C75.6304 110 81.9893 107.366 86.6777 102.678C91.3661 97.9893 94 91.6304 94 85C94 78.3696 91.3661 72.0107 86.6777 67.3223C81.9893 62.6339 75.6304 60 69 60C62.3696 60 56.0107 62.6339 51.3223 67.3223C46.6339 72.0107 44 78.3696 44 85C44 91.6304 46.6339 97.9893 51.3223 102.678C56.0107 107.366 62.3696 110 69 110ZM80.0352 80.4102L67.5352 92.9102C66.6172 93.8281 65.1328 93.8281 64.2246 92.9102L57.9746 86.6602C57.0566 85.7422 57.0566 84.2578 57.9746 83.3496C58.8926 82.4414 60.377 82.4316 61.2852 83.3496L65.875 87.9395L76.7148 77.0898C77.6328 76.1719 79.1172 76.1719 80.0254 77.0898C80.9336 78.0078 80.9434 79.4922 80.0254 80.4004L80.0352 80.4102Z" fill="white"/>
<path d="M69.1595 31L72.0232 39.8131H81.2893L73.7925 45.2598L76.6563 54.0729L69.1595 48.6259L61.6623 54.0729L64.5261 45.2598L57.0293 39.8131H66.2957L69.1595 31Z" fill="#FFDA44"/>
<path d="M31.0929 46.7695L39.3501 50.9762L45.9023 44.4243L44.4523 53.5764L52.7092 57.7834L43.5568 59.2331L42.1071 68.3858L37.9001 60.1289L28.748 61.5789L35.3003 55.0267L31.0929 46.7695Z" fill="#FFDA44"/>
<path d="M15.3223 84.8367L24.1354 81.9729V72.7065L29.5817 80.2037L38.3951 77.3399L32.9478 84.8367L38.3951 92.3335L29.5817 89.4701L24.1354 96.9669V87.7005L15.3223 84.8367Z" fill="#FFDA44"/>
<path d="M31.0929 122.904L35.2999 114.647L28.748 108.095L37.9004 109.545L42.1068 101.288L43.5568 110.44L52.7088 111.89L44.453 116.097L45.9023 125.249L39.3501 118.697L31.0929 122.904Z" fill="#FFDA44"/>
<path d="M69.1595 138.672L66.2953 129.859H57.0293L64.5264 124.413L61.6623 115.6L69.1595 121.046L76.6563 115.6L73.7925 124.413L81.2893 129.859H72.0229L69.1595 138.672Z" fill="#FFDA44"/>
<path d="M107.227 122.904L98.97 118.697L92.4175 125.25L93.8675 116.097L85.6113 111.89L94.7634 110.44L96.213 101.288L100.42 109.545L109.572 108.095L103.02 114.648L107.227 122.904Z" fill="#FFDA44"/>
<path d="M123 84.8367L114.187 87.7005V96.9669L108.74 89.4697L99.9277 92.3335L105.374 84.8367L99.9277 77.3399L108.74 80.2037L114.187 72.7065V81.9733L123 84.8367Z" fill="#FFDA44"/>
<path d="M107.227 46.7692L103.02 55.0264L109.572 61.5786L100.419 60.1282L96.213 68.3851L94.7634 59.2327L85.6113 57.7827L93.8675 53.576L92.4175 44.4243L98.9704 50.9762L107.227 46.7692Z" fill="#FFDA44"/>
</svg>
