<svg viewBox="0 0 35 38" fill="none" xmlns="http://www.w3.org/2000/svg">
<path d="M24.281 36.9953C21.561 36.9733 17.4795 36.8661 13.4642 36.4878C10.7001 36.2262 7.84461 35.8132 5.67621 34.5838C5.06477 34.2371 4.3966 34.152 3.80407 34.0795C3.55193 34.0479 3.31555 34.0196 3.11383 33.9723C1.57578 33.6098 0.50103 32.2795 0.494726 30.738L0.472664 20.4142C0.469512 18.9862 1.48753 17.7915 2.89636 17.5708C2.92158 17.5676 2.94364 17.5613 2.96885 17.555C3.1422 17.4983 7.2836 16.1491 10.4038 13.7092C11.8726 12.5618 13.1301 10.7933 13.7699 8.98075C14.4066 7.17447 14.4034 5.20428 14.4003 3.62182C14.4003 2.60047 14.3971 1.33009 14.6745 1.1441C15.3489 0.699623 16.0928 0.472656 16.8838 0.472656C19.317 0.472656 21.8006 2.69504 21.8983 4.9584C21.9676 6.52825 21.4413 8.38181 20.9338 10.1723C20.335 12.2938 19.815 14.1253 20.2846 15.3705C20.3539 15.5565 20.5304 15.6763 20.7258 15.6763C20.7321 15.6763 23.0235 15.5975 23.0235 15.5975H23.0455C25.6173 15.5975 27.7101 17.6906 27.7133 20.2597L27.729 33.5656C27.729 34.483 27.376 35.3435 26.7268 35.9898C26.0807 36.636 25.2202 36.9953 24.3031 36.9953H24.281Z" fill="url(#paint0_radial_52_527)"/>
<path d="M16.8839 0.945694C19.046 0.945694 21.3374 2.98209 21.4256 4.9775C21.4918 6.4717 20.9781 8.28743 20.4801 10.0433C19.856 12.2436 19.3203 14.1444 19.8434 15.5346C19.9821 15.9034 20.3351 16.1461 20.7291 16.1461H20.7638L23.033 16.0673H23.0519C25.3622 16.0673 27.2438 17.9461 27.2469 20.2599L27.2627 33.5658C27.2627 34.3539 26.9569 35.0978 26.3991 35.6558C25.8412 36.2138 25.1006 36.5227 24.3095 36.5227H24.2843C21.5738 36.5006 17.5048 36.3934 13.5084 36.0183C10.7979 35.763 7.99915 35.3595 5.90954 34.1742C5.21616 33.7802 4.46604 33.6888 3.86406 33.6131C3.62452 33.5847 3.40075 33.5564 3.22425 33.5122C1.90051 33.2002 0.973898 32.059 0.970746 30.7382L0.945532 20.4144C0.94238 19.2228 1.79335 18.2235 2.96896 18.0407C3.01623 18.0344 3.06666 18.0218 3.11079 18.006C3.28728 17.9493 7.50433 16.5717 10.6908 14.0814C12.2257 12.8803 13.5431 11.0331 14.2113 9.13855C14.8763 7.25662 14.8731 5.24229 14.87 3.62201C14.87 2.85284 14.8668 1.81258 14.9992 1.49735C15.5791 1.12853 16.2126 0.945694 16.8839 0.945694ZM16.8839 0C16.0487 0 15.2041 0.226967 14.413 0.75025C13.3918 1.42485 14.4981 5.48502 13.3225 8.82017C12.6165 10.8219 11.2707 12.4296 10.1108 13.3343C7.02211 15.749 2.82398 17.1044 2.82398 17.1044C1.19452 17.3598 -0.00314555 18.7657 6.20597e-06 20.4175L0.0252205 30.7413C0.031524 32.5193 1.27647 34.0229 3.00678 34.4327C3.70647 34.5966 4.66145 34.5525 5.44308 34.997C7.5327 36.1822 10.2117 36.6551 13.4202 36.9577C17.3914 37.3328 21.4256 37.4432 24.278 37.4684H24.3095C26.4621 37.4684 28.2113 35.722 28.2082 33.5658L28.1924 20.2599C28.1893 17.4197 25.8854 15.1248 23.0519 15.1248H23.0141L20.7322 15.2036C19.9443 13.1105 22.5256 8.40091 22.3743 4.93652C22.264 2.47457 19.6386 0 16.8839 0Z" fill="#EDA600"/>
<path d="M18.1694 18.3414C18.762 19.9175 18.7683 22.3763 18.1694 23.8957C17.3027 26.0897 15.1816 28.0095 12.7327 28.3468C12.1338 28.4287 12.49 28.9804 13.0857 28.8984C15.7363 28.5328 19.323 27.4578 20.2559 25.0778C22.8151 18.5368 19.821 15.1102 18.4846 16.1316C17.8417 16.6296 17.8354 17.4492 18.1694 18.3414Z" fill="#EDA600"/>
<path d="M24.5205 20.6793C21.8856 20.6793 18.7181 20.1908 18.5826 17.8554C18.5448 17.1872 18.7465 16.6262 19.2003 16.144C20.3949 14.877 23.3291 14.1804 27.4642 14.1804C28.9645 14.1804 30.0581 14.2781 30.0707 14.2781C30.0833 14.2781 30.0991 14.2813 30.1117 14.2813H30.1401C30.1842 14.2781 30.2252 14.2781 30.2693 14.2781C31.6088 14.2781 32.7277 15.4852 32.8191 17.0265C32.9136 18.6212 31.8641 19.9828 30.4805 20.0616C30.4584 20.0616 30.4332 20.0647 30.4111 20.071C30.3828 20.0742 27.4642 20.6793 24.5205 20.6793Z" fill="url(#paint1_radial_52_527)"/>
<path d="M27.4685 14.6533C28.9435 14.6533 30.0214 14.7478 30.0309 14.7478C30.0592 14.751 30.0876 14.751 30.1159 14.751C30.1349 14.751 30.1538 14.751 30.1695 14.7478C30.2042 14.7447 30.2389 14.7447 30.2704 14.7447C31.3577 14.7447 32.2717 15.7564 32.3474 17.0455C32.3852 17.7136 32.1961 18.3471 31.8147 18.8325C31.4586 19.2864 30.9732 19.5511 30.4532 19.5826C30.4059 19.5858 30.3586 19.5921 30.3145 19.6015C30.2861 19.6078 27.4086 20.2035 24.5216 20.2035C22.8449 20.2035 21.5148 20.0081 20.5724 19.6236C19.2771 19.0941 19.0848 18.344 19.0564 17.8271C19.0249 17.2882 19.1825 16.8564 19.5481 16.4655C20.6355 15.3152 23.5225 14.6533 27.4685 14.6533ZM27.4685 13.7078C23.8692 13.7078 17.8998 14.253 18.1109 17.8838C18.2654 20.5061 21.4297 21.1522 24.5216 21.1522C27.5504 21.1522 30.5099 20.5313 30.5099 20.5313C32.1551 20.4336 33.4032 18.8514 33.2929 16.995C33.1889 15.1985 31.8526 13.8023 30.2735 13.8023C30.22 13.8023 30.1695 13.8023 30.1159 13.8055C30.1159 13.8055 29.0097 13.7078 27.4685 13.7078Z" fill="#EDA600"/>
<path d="M26.4968 26.6794C23.0582 26.6794 18.9609 26.1026 18.9609 23.348C18.9609 20.5934 23.0582 20.0166 26.4968 20.0166C29.4122 20.0166 32.0691 20.4421 32.0943 20.4452C32.1195 20.4484 32.1447 20.4515 32.1699 20.4515C33.5599 20.4515 34.5274 21.9203 34.5274 23.2377C34.5274 24.6276 33.4968 26.2413 32.1699 26.2413C32.1447 26.2413 32.1195 26.2445 32.0943 26.2476C32.0659 26.2539 29.409 26.6794 26.4968 26.6794Z" fill="url(#paint2_radial_52_527)"/>
<path d="M26.4969 20.4936C29.3713 20.4936 31.9935 20.9128 32.0188 20.916C32.0692 20.9254 32.1196 20.9286 32.17 20.9286C33.2479 20.9286 34.0548 22.1514 34.0548 23.2419C34.0548 24.3797 33.1849 25.7728 32.17 25.7728C32.1196 25.7728 32.0692 25.776 32.0188 25.7854C31.9935 25.7886 29.3681 26.2077 26.4969 26.2077C24.3442 26.2077 22.6328 25.9808 21.4068 25.5301C19.6387 24.8809 19.4338 23.9732 19.4338 23.3491C19.4338 22.7219 19.6387 21.8174 21.4068 21.1681C22.6297 20.7205 24.3442 20.4936 26.4969 20.4936ZM26.4969 19.5481C22.7368 19.5481 18.4883 20.2383 18.4883 23.3523C18.4883 26.4662 22.7337 27.1564 26.4969 27.1564C29.4879 27.1564 32.17 26.7215 32.17 26.7215C33.7963 26.7215 35.0003 24.8588 35.0003 23.2451C35.0003 21.6314 33.7963 19.9862 32.17 19.9862C32.17 19.983 29.4847 19.5481 26.4969 19.5481Z" fill="#EDA600"/>
<path d="M29.1178 37.1599C27.7909 37.1599 21.0682 37.0559 19.0322 35.0167C18.6761 34.6606 18.5059 34.2761 18.5059 33.8411C18.5122 32.1865 21.3456 31.2378 26.2781 31.2378C28.0368 31.2378 29.3983 31.3639 29.4141 31.3639C29.4267 31.3639 29.4424 31.367 29.455 31.367C30.1926 31.3702 30.8891 31.6696 31.4091 32.2148C31.9355 32.7632 32.2223 33.4944 32.2223 34.2698C32.216 35.8614 30.971 37.1536 29.4456 37.1536C29.4235 37.1599 29.3132 37.1599 29.1178 37.1599Z" fill="url(#paint3_radial_52_527)"/>
<path d="M26.2802 31.7107C28.0105 31.7107 29.3563 31.8336 29.3689 31.8367C29.3972 31.8399 29.4256 31.8399 29.454 31.8399C30.0623 31.843 30.6359 32.092 31.0677 32.5427C31.5089 33.0029 31.7516 33.6175 31.7484 34.2699C31.7453 35.5999 30.7115 36.6841 29.4351 36.6841H29.4319H29.413C29.4067 36.6841 29.2995 36.6873 29.1136 36.6873C23.3931 36.6873 20.2855 35.6062 19.3621 34.6828C19.0122 34.3329 18.9744 34.0367 18.9744 33.8444C18.9838 32.527 21.7795 31.7107 26.2802 31.7107ZM26.2802 30.7651C22.9015 30.7651 18.0415 31.219 18.0352 33.8381C18.0226 37.45 27.2698 37.6297 29.1167 37.6297C29.3216 37.6297 29.4351 37.6265 29.4351 37.6265H29.4445C31.2347 37.6265 32.6877 36.1263 32.694 34.2699C32.7003 32.4103 31.2505 30.8975 29.4571 30.8912C29.4571 30.8944 28.0798 30.7651 26.2802 30.7651Z" fill="#EDA600"/>
<path d="M27.9382 32.1543C25.1047 32.1543 18.5176 31.8328 18.5176 28.8544C18.5176 26.3519 23.2673 25.98 26.1007 25.98C28.6063 25.98 30.7653 26.2573 30.7874 26.2605C30.8063 26.2636 30.8283 26.2636 30.8472 26.2636C32.1615 26.2636 33.6933 26.9129 33.6933 28.7441C33.6933 30.4775 32.338 32.0534 30.8472 32.0534H30.8094C30.7968 32.0566 29.5834 32.1543 27.9382 32.1543Z" fill="url(#paint4_radial_52_527)"/>
<path d="M26.1008 25.5115V26.457C28.5686 26.457 30.7055 26.7312 30.7244 26.7344C30.7654 26.7407 30.8064 26.7407 30.8473 26.7407C31.9946 26.7407 33.2206 27.267 33.2206 28.7483C33.2206 30.2076 32.0671 31.5849 30.8473 31.5849C30.8221 31.5849 30.7969 31.5849 30.7685 31.5881C30.7559 31.5881 29.5614 31.6858 27.9351 31.6858C26.2174 31.6858 23.7622 31.5754 21.8176 31.0586C19.9423 30.5574 18.9904 29.8168 18.9904 28.8618C18.9904 28.5687 18.9904 27.6767 20.9887 27.0495C22.2336 26.6587 23.9513 26.4602 26.0976 26.4602L26.1008 25.5115ZM26.1008 25.5115C22.4574 25.5115 18.0449 26.0851 18.0449 28.8586C18.0449 32.127 24.1593 32.6313 27.9383 32.6313C29.6276 32.6313 30.8473 32.5304 30.8473 32.5304C32.6249 32.5304 34.1661 30.693 34.1661 28.7483C34.1661 26.8037 32.6249 25.7951 30.8473 25.7951C30.8473 25.7951 28.6632 25.5115 26.1008 25.5115Z" fill="#EDA600"/>
<path d="M6.08731 34.8616L4.57762 28.9048L3.94727 34.2628L6.08731 34.8616Z" fill="#EDA600"/>
<defs>
<radialGradient id="paint0_radial_52_527" cx="0" cy="0" r="1" gradientUnits="userSpaceOnUse" gradientTransform="translate(13.6436 8.53977) rotate(90.1249) scale(27.4375 21.5977)">
<stop offset="0.6" stop-color="#FFCA28"/>
<stop offset="1" stop-color="#FFB300"/>
</radialGradient>
<radialGradient id="paint1_radial_52_527" cx="0" cy="0" r="1" gradientUnits="userSpaceOnUse" gradientTransform="translate(29.7752 17.1548) rotate(176.727) scale(8.91053 4.36006)">
<stop offset="0.5993" stop-color="#FFCA28"/>
<stop offset="1" stop-color="#FFB300"/>
</radialGradient>
<radialGradient id="paint2_radial_52_527" cx="0" cy="0" r="1" gradientUnits="userSpaceOnUse" gradientTransform="translate(31.1826 23.265) rotate(-179.936) scale(10.0283 4.02151)">
<stop offset="0.5993" stop-color="#FFCA28"/>
<stop offset="1" stop-color="#FFB300"/>
</radialGradient>
<radialGradient id="paint3_radial_52_527" cx="0" cy="0" r="1" gradientUnits="userSpaceOnUse" gradientTransform="translate(29.2291 34.1362) rotate(-179.726) scale(8.42186 4.38464)">
<stop offset="0.5993" stop-color="#FFCA28"/>
<stop offset="1" stop-color="#FFB300"/>
</radialGradient>
<radialGradient id="paint4_radial_52_527" cx="0" cy="0" r="1" gradientUnits="userSpaceOnUse" gradientTransform="translate(30.4269 28.992) rotate(-179.934) scale(9.59516 3.99105)">
<stop offset="0.5993" stop-color="#FFCA28"/>
<stop offset="1" stop-color="#FFB300"/>
</radialGradient>
</defs>
</svg>
