<?xml version="1.0" encoding="UTF-8" standalone="no"?>
<svg
   viewBox="0 0 173 173"
   version="1.1"
   id="svg3"
   sodipodi:docname="5148.svg"
   inkscape:version="1.3.2 (091e20ef0f, 2023-11-25)"
   xmlns:inkscape="http://www.inkscape.org/namespaces/inkscape"
   xmlns:sodipodi="http://sodipodi.sourceforge.net/DTD/sodipodi-0.dtd"
   xmlns="http://www.w3.org/2000/svg"
   xmlns:svg="http://www.w3.org/2000/svg">
  <defs
     id="defs3" />
  <sodipodi:namedview
     id="namedview3"
     pagecolor="#ffffff"
     bordercolor="#000000"
     borderopacity="0.25"
     inkscape:showpageshadow="2"
     inkscape:pageopacity="0.0"
     inkscape:pagecheckerboard="0"
     inkscape:deskcolor="#d1d1d1"
     inkscape:zoom="4.8381503"
     inkscape:cx="91.563919"
     inkscape:cy="78.645759"
     inkscape:window-width="1920"
     inkscape:window-height="1043"
     inkscape:window-x="0"
     inkscape:window-y="0"
     inkscape:window-maximized="1"
     inkscape:current-layer="svg3" />
  <g
     fill-rule="nonzero"
     fill="none"
     id="g3"
     transform="matrix(1.0303577,0,0,1.0303577,-2.6107602,-2.6107602)">
    <path
       d="M 1,1 H 171 V 171 H 1 Z"
       fill="#1866a5"
       id="path1" />
    <g
       fill="#ffffff"
       id="g2">
      <path
         d="m 33,114 v 10 h 23 v 9 H 24 V 87 h 32 v 9 H 33 v 9 h 22 v 9 z m 28,-4 c 0,-14 11,-23 24,-23 10,0 16,5 19,11 l -8,4 c -2,-4 -6,-7 -11,-7 -8,0 -14,6 -14,15 0,8 6,14 14,14 5,0 9,-2 11,-6 l 8,4 c -3,5 -9,11 -19,11 -14,1 -24,-9 -24,-23 m -29,29 c 3,0 4,2 6,3 l -3,1 -3,-2 c -3,0 -5,2 -5,5 0,3 2,5 5,5 l 3,-1 v -2 h -4 v -3 h 7 v 6 l -6,2 c -5,0 -8,-2 -8,-7 0,-4 3,-7 8,-7 m 26,9 h -2 v 6 h -3 v -15 h 6 c 3,0 5,2 5,5 0,2 -2,4 -3,4 l 3,6 h -3 z m 1,-6 h -3 v 4 h 3 l 2,-2 -2,-2 m 27,-3 c 5,0 8,3 8,7 0,5 -3,8 -8,8 -4,0 -7,-3 -7,-8 0,-4 3,-7 7,-7 m 0,3 c -2,0 -4,2 -4,4 0,3 2,5 4,5 3,0 5,-2 5,-5 0,-2 -2,-4 -5,-4 m 22,-3 h 3 v 9 c 0,2 1,3 3,3 3,0 4,-1 4,-3 v -9 h 3 v 9 c 0,4 -2,6 -7,6 -4,0 -6,-3 -6,-6 z M 24,79 a 61,61 0 1 1 122,0 h -13 c -1,-1 -4,-4 -6,-4 l -6,1 -5,-2 h -6 c 0,0 -3,-2 -3,-4 1,-1 2,-1 2,-3 l -2,-7 -1,-4 h 1 l 4,1 2,-1 v -3 -1 -1 l 2,-1 1,-2 v -1 l 1,-2 c 0,-1 0,-2 -6,-5 l -1,-1 -3,-3 -3,-1 -1,-1 v -3 l -3,-3 h -5 l -6,3 -3,3 -6,8 c -1,1 -5,3 -5,11 -1,2 -1,3 -4,4 -7,2 -20,-4 -27,1 -5,4 -8,8 -9,21 z m 102,38 h -7 v 16 h -9 V 87 h 21 c 9,0 15,7 15,15 0,8 -5,12 -10,13 l 10,17 h -11 z m 3,-21 h -10 v 12 h 10 c 4,0 7,-2 7,-6 0,-4 -3,-6 -7,-6 m 7,43 h 7 c 3,0 5,2 5,5 0,2 -2,4 -5,4 h -4 v 6 h -3 z m 7,3 h -4 v 4 h 4 l 2,-2 -2,-2"
         id="path2" />
    </g>
  </g>
</svg>
