<svg viewBox="0 0 36 36" fill="none" xmlns="http://www.w3.org/2000/svg">
<path d="M18 36C27.9411 36 36 27.9411 36 18C36 8.05887 27.9411 0 18 0C8.05887 0 0 8.05887 0 18C0 27.9411 8.05887 36 18 36Z" fill="#0052B4"/>
<path d="M17.9999 7.04346L18.5827 8.83706H20.4685L18.9428 9.94553L19.5256 11.7391L17.9999 10.6306L16.4741 11.7391L17.057 9.94553L15.5312 8.83706H17.4171L17.9999 7.04346Z" fill="#FFDA44"/>
<path d="M10.2526 10.2527L11.9331 11.1088L13.2665 9.77539L12.9714 11.638L14.6518 12.4942L12.7892 12.7892L12.4942 14.6519L11.638 12.9715L9.77539 13.2666L11.1089 11.9331L10.2526 10.2527Z" fill="#FFDA44"/>
<path d="M7.04297 17.9999L8.83657 17.4171V15.5312L9.94498 17.057L11.7386 16.4742L10.63 17.9999L11.7386 19.5256L9.94498 18.9429L8.83657 20.4686V18.5827L7.04297 17.9999Z" fill="#FFDA44"/>
<path d="M10.2526 25.7473L11.1088 24.0668L9.77539 22.7334L11.638 23.0285L12.4941 21.3481L12.7892 23.2108L14.6518 23.5058L12.9716 24.362L13.2665 26.2246L11.9331 24.8911L10.2526 25.7473Z" fill="#FFDA44"/>
<path d="M17.9999 28.9563L17.417 27.1627H15.5312L17.057 26.0542L16.4741 24.2607L17.9999 25.3691L19.5256 24.2607L18.9428 26.0542L20.4685 27.1627H18.5827L17.9999 28.9563Z" fill="#FFDA44"/>
<path d="M25.7468 25.7473L24.0664 24.8912L22.7328 26.2247L23.0279 24.3619L21.3477 23.5058L23.2102 23.2108L23.5053 21.3481L24.3614 23.0285L26.224 22.7334L24.8905 24.067L25.7468 25.7473Z" fill="#FFDA44"/>
<path d="M28.9573 17.9999L27.1637 18.5827V20.4686L26.0552 18.9428L24.2617 19.5256L25.3702 17.9999L24.2617 16.4742L26.0552 17.057L27.1637 15.5312V17.4172L28.9573 17.9999Z" fill="#FFDA44"/>
<path d="M25.7468 10.2526L24.8906 11.9331L26.224 13.2665L24.3613 12.9714L23.5053 14.6518L23.2102 12.7891L21.3477 12.494L23.0279 11.6379L22.7328 9.77539L24.0664 11.1088L25.7468 10.2526Z" fill="#FFDA44"/>
</svg>
