<svg viewBox="0 0 139 139" fill="none" xmlns="http://www.w3.org/2000/svg">
<path d="M69.2609 138.522C107.513 138.522 138.522 107.513 138.522 69.2609C138.522 31.0092 107.513 0 69.2609 0C31.0092 0 0 31.0092 0 69.2609C0 107.513 31.0092 138.522 69.2609 138.522Z" fill="#0052B4"/>
<path d="M69 94C75.6304 94 81.9893 91.3661 86.6777 86.6777C91.3661 81.9893 94 75.6304 94 69C94 62.3696 91.3661 56.0107 86.6777 51.3223C81.9893 46.6339 75.6304 44 69 44C62.3696 44 56.0107 46.6339 51.3223 51.3223C46.6339 56.0107 44 62.3696 44 69C44 75.6304 46.6339 81.9893 51.3223 86.6777C56.0107 91.3661 62.3696 94 69 94ZM80.0352 64.4102L67.5352 76.9102C66.6172 77.8281 65.1328 77.8281 64.2246 76.9102L57.9746 70.6602C57.0566 69.7422 57.0566 68.2578 57.9746 67.3496C58.8926 66.4414 60.377 66.4316 61.2852 67.3496L65.875 71.9395L76.7148 61.0898C77.6328 60.1719 79.1172 60.1719 80.0254 61.0898C80.9336 62.0078 80.9434 63.4922 80.0254 64.4004L80.0352 64.4102Z" fill="white"/>
<path d="M69.1595 15L72.0232 23.8131H81.2893L73.7925 29.2598L76.6563 38.0729L69.1595 32.6259L61.6623 38.0729L64.5261 29.2598L57.0293 23.8131H66.2957L69.1595 15Z" fill="#FFDA44"/>
<path d="M31.0929 30.7695L39.3501 34.9762L45.9023 28.4243L44.4523 37.5764L52.7092 41.7834L43.5568 43.2331L42.1071 52.3858L37.9001 44.1289L28.748 45.5789L35.3003 39.0267L31.0929 30.7695Z" fill="#FFDA44"/>
<path d="M15.3223 68.8367L24.1354 65.9729V56.7065L29.5817 64.2037L38.3951 61.3399L32.9478 68.8367L38.3951 76.3335L29.5817 73.4701L24.1354 80.9669V71.7005L15.3223 68.8367Z" fill="#FFDA44"/>
<path d="M31.0929 106.904L35.2999 98.6468L28.748 92.0946L37.9004 93.545L42.1068 85.2881L43.5568 94.4405L52.7088 95.8901L44.453 100.097L45.9023 109.249L39.3501 102.697L31.0929 106.904Z" fill="#FFDA44"/>
<path d="M69.1595 122.672L66.2953 113.859H57.0293L64.5264 108.413L61.6623 99.6001L69.1595 105.046L76.6563 99.6001L73.7925 108.413L81.2893 113.859H72.0229L69.1595 122.672Z" fill="#FFDA44"/>
<path d="M107.227 106.904L98.97 102.697L92.4175 109.25L93.8675 100.097L85.6113 95.8901L94.7634 94.4405L96.213 85.2881L100.42 93.545L109.572 92.0946L103.02 98.6475L107.227 106.904Z" fill="#FFDA44"/>
<path d="M123 68.8367L114.187 71.7005V80.9669L108.74 73.4697L99.9277 76.3335L105.374 68.8367L99.9277 61.3399L108.74 64.2037L114.187 56.7065V65.9733L123 68.8367Z" fill="#FFDA44"/>
<path d="M107.227 30.7692L103.02 39.0264L109.572 45.5786L100.419 44.1282L96.213 52.3851L94.7634 43.2327L85.6113 41.7827L93.8675 37.576L92.4175 28.4243L98.9704 34.9762L107.227 30.7692Z" fill="#FFDA44"/>
</svg>
